<?xml version="1.0" encoding="UTF-8"?> <svg xmlns="http://www.w3.org/2000/svg" width="41" height="42" viewBox="0 0 41 42" fill="none"><rect y="0.461914" width="40.3846" height="41.5385" rx="20.1923" fill="white" fill-opacity="0.05"></rect><path d="M9.69019 11.5386H30.4594V21.984C30.4594 24.6617 29.0309 27.1362 26.7121 28.4752L20.0748 32.3078L13.4376 28.4752C11.1187 27.1362 9.69019 24.6617 9.69019 21.984V11.5386Z" fill="#FFDD2D"></path><path fill-rule="evenodd" clip-rule="evenodd" d="M15.6235 16.8799V20.0358C16.0737 19.5484 16.8923 19.2186 17.8281 19.2186H18.8452V22.8873C18.8452 23.8633 18.5685 24.7177 18.1581 25.1876H22.582C22.1724 24.7172 21.8963 23.864 21.8963 22.8892V19.2186H22.9134C23.8493 19.2186 24.6678 19.5484 25.118 20.0358V16.8799H15.6235Z" fill="#02212B"></path></svg> 