<?xml version="1.0" encoding="UTF-8"?> <svg xmlns="http://www.w3.org/2000/svg" width="185" height="31" viewBox="0 0 185 31" fill="none"><rect width="185" height="31" rx="15.5" transform="matrix(-1 8.74228e-08 8.74228e-08 1 185 0)" fill="white" fill-opacity="0.15"></rect><path opacity="0.7" fill-rule="evenodd" clip-rule="evenodd" d="M165.5 25C170.747 25 175 20.7467 175 15.5C175 10.2533 170.747 6 165.5 6C160.253 6 156 10.2533 156 15.5C156 20.7467 160.253 25 165.5 25ZM167.513 15.6081C168.1 15.0457 168.716 14.4542 168.716 13.3693C168.716 11.6864 167.495 10.75 165.731 10.75C164.102 10.75 162.65 11.7136 162.65 13.695L162.65 14.2786L164.292 14.2786L164.292 13.8443C164.292 12.6771 164.93 12.2429 165.731 12.2429C166.599 12.2429 167.088 12.65 167.088 13.3693C167.088 13.9917 166.651 14.4434 166.175 14.9366C165.602 15.5296 164.971 16.1826 164.971 17.2643L164.971 17.6714L166.464 17.6714L166.477 17.3321C166.509 16.5715 166.999 16.101 167.513 15.6081ZM164.767 20.25C164.767 20.7521 165.201 21.2 165.717 21.2C166.246 21.2 166.667 20.7521 166.667 20.25C166.667 19.7343 166.246 19.3 165.717 19.3C165.201 19.3 164.767 19.7343 164.767 20.25Z" fill="white"></path><path opacity="0.7" d="M13.8083 21.66C12.3843 21.66 11.0883 20.972 11.0883 19.388C11.0883 15.932 16.4803 17.66 16.4803 15.836C16.4803 15.052 15.7283 14.62 14.7523 14.62C13.7123 14.62 12.9923 15.148 12.9923 16.188L11.3283 16.188C11.3283 14.124 12.9923 13.34 14.7523 13.34C16.4803 13.34 18.0803 14.044 18.0803 15.9L18.0803 21.5L16.5123 21.5L16.5123 20.156C15.9843 21.212 14.9603 21.66 13.8083 21.66ZM12.7203 19.292C12.7203 19.98 13.3123 20.316 14.1283 20.316C15.3603 20.316 16.5123 19.596 16.5123 18.204L16.5123 17.628C15.1523 18.284 12.7203 17.948 12.7203 19.292ZM28.7567 17.084L28.7567 13.5L30.3567 13.5L30.3567 21.5L28.7567 21.5L28.7567 18.524C28.3087 18.668 27.6207 18.748 27.0607 18.748C24.7087 18.748 23.5567 17.74 23.5567 15.324L23.5567 13.5L25.1567 13.5L25.1567 15.308C25.1567 16.748 25.8767 17.276 27.1887 17.276C27.9727 17.276 28.4527 17.164 28.7567 17.084ZM36.0034 21.5L34.4034 21.5L34.4034 14.972L31.8114 14.972L31.8114 13.5L38.5954 13.5L38.5954 14.972L36.0034 14.972L36.0034 21.5ZM43.4134 21.66C41.0934 21.66 39.3654 19.948 39.3654 17.5C39.3654 15.052 41.0934 13.34 43.4134 13.34C45.7334 13.34 47.4614 15.052 47.4614 17.5C47.4614 19.948 45.7334 21.66 43.4134 21.66ZM43.4134 20.188C44.8054 20.188 45.8614 19.116 45.8614 17.5C45.8614 15.884 44.8054 14.812 43.4134 14.812C42.0214 14.812 40.9654 15.884 40.9654 17.5C40.9654 19.116 42.0214 20.188 43.4134 20.188ZM58.6062 16.684C58.4462 15.468 57.4702 14.812 56.3182 14.812C54.9582 14.812 53.9342 15.884 53.9342 17.5C53.9342 19.116 54.9582 20.188 56.3182 20.188C57.4862 20.188 58.4782 19.468 58.6382 18.14L60.3022 18.14C60.1742 20.252 58.4942 21.66 56.3182 21.66C54.0302 21.66 52.3342 19.948 52.3342 17.5C52.3342 15.052 54.0302 13.34 56.3182 13.34C58.4302 13.34 60.0782 14.684 60.2702 16.684L58.6062 16.684ZM67.3699 13.5L67.3699 17.052L70.8099 13.5L72.9379 13.5L69.1779 17.148L73.2259 21.5L71.1939 21.5L67.3699 17.292L67.3699 21.5L65.7699 21.5L65.7699 13.5L67.3699 13.5ZM76.5896 21.66C75.1656 21.66 73.8696 20.972 73.8696 19.388C73.8696 15.932 79.2616 17.66 79.2616 15.836C79.2616 15.052 78.5096 14.62 77.5336 14.62C76.4936 14.62 75.7736 15.148 75.7736 16.188L74.1096 16.188C74.1096 14.124 75.7736 13.34 77.5336 13.34C79.2616 13.34 80.8616 14.044 80.8616 15.9L80.8616 21.5L79.2936 21.5L79.2936 20.156C78.7656 21.212 77.7416 21.66 76.5896 21.66ZM75.5016 19.292C75.5016 19.98 76.0936 20.316 76.9096 20.316C78.1416 20.316 79.2936 19.596 79.2936 18.204L79.2936 17.628C77.9336 18.284 75.5016 17.948 75.5016 19.292ZM87.7879 17.084L87.7879 13.5L89.3879 13.5L89.3879 21.5L87.7879 21.5L87.7879 18.524C87.3399 18.668 86.6519 18.748 86.0919 18.748C83.7399 18.748 82.5879 17.74 82.5879 15.324L82.5879 13.5L84.1879 13.5L84.1879 15.308C84.1879 16.748 84.9079 17.276 86.2199 17.276C87.0039 17.276 87.4839 17.164 87.7879 17.084ZM98.9867 18.044L92.7147 18.044C92.9067 19.436 93.8027 20.252 95.1467 20.252C96.1227 20.252 96.7627 19.82 97.0827 19.1L98.8107 19.1C98.3147 20.748 96.9227 21.66 95.0827 21.66C92.8107 21.66 91.1467 19.948 91.1467 17.5C91.1467 15.052 92.8107 13.34 95.0827 13.34C97.3547 13.34 99.0187 15.052 99.0187 17.5C99.0187 17.692 99.0027 17.868 98.9867 18.044ZM95.0827 14.748C93.7867 14.748 92.9227 15.548 92.7307 16.892L97.4347 16.892C97.2427 15.548 96.3627 14.748 95.0827 14.748ZM106.481 16.684C106.321 15.468 105.345 14.812 104.193 14.812C102.833 14.812 101.809 15.884 101.809 17.5C101.809 19.116 102.833 20.188 104.193 20.188C105.361 20.188 106.353 19.468 106.513 18.14L108.177 18.14C108.049 20.252 106.369 21.66 104.193 21.66C101.905 21.66 100.209 19.948 100.209 17.5C100.209 15.052 101.905 13.34 104.193 13.34C106.305 13.34 107.953 14.684 108.145 16.684L106.481 16.684ZM112.957 21.5L111.357 21.5L111.357 14.972L108.765 14.972L108.765 13.5L115.549 13.5L115.549 14.972L112.957 14.972L112.957 21.5ZM117.02 21.5L117.02 13.5L120.988 13.5C122.46 13.5 123.468 14.188 123.468 15.58C123.468 16.428 123.052 16.972 122.364 17.26C123.244 17.548 123.804 18.188 123.804 19.196C123.804 20.732 122.78 21.5 121.116 21.5L117.02 21.5ZM120.524 14.716L118.556 14.716L118.556 16.796L120.524 16.796C121.516 16.796 121.932 16.428 121.932 15.756C121.932 15.036 121.516 14.716 120.524 14.716ZM120.844 18.012L118.556 18.012L118.556 20.284L120.844 20.284C121.74 20.284 122.204 19.884 122.204 19.148C122.204 18.412 121.74 18.012 120.844 18.012ZM129.335 21.66C127.015 21.66 125.287 19.948 125.287 17.5C125.287 15.052 127.015 13.34 129.335 13.34C131.655 13.34 133.383 15.052 133.383 17.5C133.383 19.948 131.655 21.66 129.335 21.66ZM129.335 20.188C130.727 20.188 131.783 19.116 131.783 17.5C131.783 15.884 130.727 14.812 129.335 14.812C127.943 14.812 126.887 15.884 126.887 17.5C126.887 19.116 127.943 20.188 129.335 20.188ZM140.649 21.5L138.857 21.5L136.633 14.588L136.633 21.5L135.161 21.5L135.161 13.5L137.865 13.5L139.849 20.092L141.833 13.5L144.489 13.5L144.489 21.5L142.889 21.5L142.889 14.588L140.649 21.5Z" fill="white"></path></svg> 