<?xml version="1.0" encoding="UTF-8"?> <svg xmlns="http://www.w3.org/2000/svg" width="298" height="42" viewBox="0 0 298 42" fill="none"><path d="M4.22474 31.6429C1.76615 33.0631 0 31.8796 0 29.7746C0 27.5337 0 20.81 0 20.81C0 20.81 0 14.0862 0 11.8454C0 9.74036 1.76505 8.55691 4.22474 9.97705C8.05395 12.1883 19.5405 18.8244 19.5405 18.8244C21.0678 19.7065 21.0678 21.9124 19.5405 22.7945C19.5405 22.7956 8.05395 29.4316 4.22474 31.6429Z" fill="#00C1FF"></path><path d="M16.8695 31.641C14.4109 33.0611 12.6448 31.8777 12.6448 29.7727C12.6448 27.5318 12.6448 20.808 12.6448 20.808C12.6448 20.808 12.6448 14.0843 12.6448 11.8434C12.6448 9.73841 14.4098 8.55496 16.8695 9.97509C20.6144 12.1382 31.8489 18.6285 31.8489 18.6285C33.5263 19.5972 33.5263 22.0189 31.8489 22.9876C31.8478 22.9876 20.6144 29.4779 16.8695 31.641Z" fill="#BCEC30"></path><mask id="mask0_85_3927" style="mask-type:alpha" maskUnits="userSpaceOnUse" x="12" y="9" width="22" height="24"><path d="M16.8673 31.641C14.4087 33.0611 12.6426 31.8777 12.6426 29.7727C12.6426 27.5318 12.6426 20.808 12.6426 20.808C12.6426 20.808 12.6426 14.0843 12.6426 11.8434C12.6426 9.73841 14.4076 8.55496 16.8673 9.97509C20.6122 12.1382 31.8467 18.6285 31.8467 18.6285C33.5241 19.5972 33.5241 22.0189 31.8467 22.9876C31.8456 22.9876 20.6122 29.4779 16.8673 31.641Z" fill="#6FE4FF"></path></mask><g mask="url(#mask0_85_3927)"><g filter="url(#filter0_f_85_3927)"><path d="M4.22547 31.6429C1.76688 33.0631 0.000732422 31.8796 0.000732422 29.7746C0.000732422 27.5337 0.000732422 20.81 0.000732422 20.81C0.000732422 20.81 0.000732422 14.0862 0.000732422 11.8454C0.000732422 9.74036 1.76579 8.55691 4.22547 9.97705C8.05469 12.1883 19.5412 18.8244 19.5412 18.8244C21.0685 19.7065 21.0685 21.9124 19.5412 22.7945C19.5412 22.7956 8.05469 29.4316 4.22547 31.6429Z" fill="#99D100"></path></g></g><path d="M41.1168 24.809L41.5451 23.8337C41.8371 23.1705 42.3627 22.995 43.0246 23.4826C44.2901 24.4189 46.3732 25.1016 49.1571 25.1016C51.5322 25.1016 52.5446 24.4969 52.5446 23.7752C52.5446 22.956 51.7075 22.7414 50.3252 22.5659L47.1714 22.1562C43.3751 21.6491 41.4672 20.2837 41.4672 17.9041C41.4672 15.3489 43.5503 13.3203 48.3784 13.3203C51.065 13.3203 52.7977 13.7299 53.9268 14.159C55.1728 14.6467 55.348 15.0563 55.348 16.0706V17.3969C55.348 18.2162 55.056 18.4892 54.2578 18.4892H53.3623C52.5446 18.4892 52.272 18.1967 52.272 17.3969V16.9678C51.7464 16.7923 50.442 16.5387 48.9235 16.5387C46.2564 16.5387 44.9715 17.0263 44.9715 17.8456C44.9715 18.4502 45.7502 18.8013 47.1714 18.9964L50.2668 19.406C54.0047 19.8741 55.9905 21.0054 55.9905 23.7362C55.9905 26.5059 53.3623 28.2809 48.6704 28.2809C45.2245 28.2809 42.4601 27.1886 41.3504 26.1744C40.961 25.7842 40.9026 25.2966 41.1168 24.809Z" fill="black"></path><path d="M75.3007 28.0475H73.7043C72.9256 28.0475 72.6725 27.9305 72.2831 27.3453L69.285 22.9176C68.8567 22.3129 68.5258 22.1569 67.6302 22.1569H64.6321V26.9552C64.6321 27.7745 64.3401 28.0475 63.5419 28.0475H62.3933C61.5756 28.0475 61.3031 27.7549 61.3031 26.9552V12.5603H60.2323C59.4146 12.5603 59.1421 12.2677 59.1421 11.468V10.4927C59.1421 9.67347 59.4341 9.40039 60.2323 9.40039H63.5614C64.379 9.40039 64.6516 9.69297 64.6516 10.4927V18.919H67.3382C68.2337 18.919 68.5452 18.7825 68.993 18.1583L71.5044 14.2767C71.9132 13.6721 72.1663 13.555 72.945 13.555H74.5414C75.4175 13.555 75.5732 14.2572 75.0865 14.9789L72.2831 19.2311C71.9911 19.6407 71.6407 20.0698 71.3097 20.4209C71.6601 20.7135 72.1468 21.2011 72.3415 21.4937L75.8458 26.6626C76.3325 27.3453 76.1573 28.0475 75.3007 28.0475Z" fill="black"></path><path d="M80.9975 30.6999V29.7442C80.9975 28.9249 81.2895 28.6519 82.0877 28.6519H83.47C84.3071 28.6519 84.7159 28.4763 85.0274 27.8131L85.2026 27.4425L78.5834 14.9006C78.1746 14.1399 78.5056 13.5742 79.3622 13.5742H80.8612C81.6399 13.5742 81.9904 13.7108 82.2824 14.2764L85.0469 19.972C85.6893 21.2788 86.4097 22.7808 86.9742 24.0876C87.5583 22.8198 88.2202 21.3569 88.8432 20.089L91.6661 14.2764C91.9192 13.7303 92.3085 13.5742 93.0872 13.5742H94.5863C95.4624 13.5742 95.7739 14.1594 95.365 14.9006L87.8308 29.237C86.9548 30.895 85.9619 31.8117 83.7036 31.8117H82.0488C81.2701 31.8117 80.9975 31.5192 80.9975 30.6999Z" fill="black"></path><path d="M115.725 20.8104C115.725 25.4136 112.318 28.2809 107.723 28.2809C105.738 28.2809 104.219 27.7933 103.148 27.1886V31.1287C103.148 31.9479 102.856 32.221 102.058 32.221H100.909C100.092 32.221 99.8192 31.9284 99.8192 31.1287V16.7338H98.7484C97.9308 16.7338 97.6582 16.4412 97.6582 15.6415V14.6662C97.6582 13.847 97.9502 13.5739 98.7484 13.5739H101.552C102.37 13.5739 102.642 13.8665 102.642 14.6662V14.7442C103.732 14.0225 105.387 13.3203 107.723 13.3203C112.318 13.3398 115.725 16.2071 115.725 20.8104ZM112.259 20.8104C112.259 18.1186 110.098 16.6167 107.412 16.6167C105.484 16.6167 103.907 17.4359 103.168 18.0991V23.5411C103.927 24.2043 105.484 25.0235 107.412 25.0235C110.098 25.004 112.259 23.5021 112.259 20.8104Z" fill="black"></path><path d="M133.859 19.681C133.859 20.5003 133.567 20.7733 132.769 20.7733H131.621C130.803 20.7733 130.53 20.5393 130.53 19.681C130.53 17.5355 129.713 16.5797 127.766 16.5797C125.916 16.5797 124.378 17.7305 123.522 19.1349V26.9565C123.522 27.7758 123.23 28.0488 122.432 28.0488H121.283C120.465 28.0488 120.193 27.7563 120.193 26.9565V16.7357H119.122C118.304 16.7357 118.032 16.4432 118.032 15.6434V14.6682C118.032 13.8489 118.324 13.5759 119.122 13.5759H121.925C122.743 13.5759 123.016 13.8684 123.016 14.6682V15.6044C124.047 14.4536 125.624 13.3418 128.311 13.3418C132.244 13.3418 133.859 15.6824 133.859 19.681Z" fill="black"></path><path d="M135.929 20.8124C135.929 16.5212 139.551 13.3418 144.359 13.3418C149.129 13.3418 152.73 16.5212 152.73 20.8124C152.73 25.123 149.109 28.3024 144.359 28.3024C139.551 28.3024 135.929 25.123 135.929 20.8124ZM149.421 20.8124C149.421 18.3157 147.221 16.5017 144.359 16.5017C141.439 16.5017 139.239 18.3352 139.239 20.8124C139.239 23.3285 141.439 25.1621 144.359 25.1621C147.24 25.1621 149.421 23.3285 149.421 20.8124Z" fill="black"></path><rect x="167.731" width="129.818" height="41.6182" rx="20.8091" fill="white"></rect><path opacity="0.3" d="M202.104 27.873H199.025L195.203 15.997V27.873H192.674V14.1276H197.32L200.729 25.4538L204.138 14.1276H208.701V27.873H205.952V15.997L202.104 27.873ZM225.236 21.935H214.459C214.789 24.3267 216.329 25.7288 218.638 25.7288C220.315 25.7288 221.414 24.9865 221.964 23.7494H224.933C224.081 26.581 221.689 28.148 218.528 28.148C214.624 28.148 211.765 25.2064 211.765 21.0003C211.765 16.7942 214.624 13.8527 218.528 13.8527C222.432 13.8527 225.291 16.7942 225.291 21.0003C225.291 21.3302 225.263 21.6326 225.236 21.935ZM218.528 16.2719C216.301 16.2719 214.817 17.6464 214.487 19.9557H222.569C222.239 17.6464 220.727 16.2719 218.528 16.2719ZM226.814 25.3439H228.161C228.848 24.0518 229.398 22.1824 229.453 14.1276H240.037V25.3439H241.961V31.5843H239.432V27.873H229.343V31.5843H226.814V25.3439ZM231.652 22.0725C231.432 23.6669 231.212 24.6566 230.937 25.3439H237.288V16.6568H231.955C231.927 19.1309 231.817 20.8354 231.652 22.0725ZM257.182 27.873H254.543V16.9042L248.248 27.873H244.757V14.1276H247.396V25.0965L253.691 14.1276H257.182V27.873ZM265.199 28.148C262.752 28.148 260.526 26.9658 260.526 24.2442C260.526 18.3062 269.79 21.2752 269.79 18.1413C269.79 16.7942 268.498 16.052 266.821 16.052C265.034 16.052 263.797 16.9592 263.797 18.7461H260.938C260.938 15.1997 263.797 13.8527 266.821 13.8527C269.79 13.8527 272.539 15.0623 272.539 18.2512V27.873H269.845V25.5638C268.938 27.3782 267.178 28.148 265.199 28.148ZM263.33 24.0793C263.33 25.2614 264.347 25.8387 265.749 25.8387C267.866 25.8387 269.845 24.6016 269.845 22.2099V21.2202C267.508 22.3474 263.33 21.7701 263.33 24.0793Z" fill="#0F1119"></path><defs><filter id="filter0_f_85_3927" x="-2.11202" y="7.24369" width="24.9115" height="27.1327" filterUnits="userSpaceOnUse" color-interpolation-filters="sRGB"><feFlood flood-opacity="0" result="BackgroundImageFix"></feFlood><feBlend mode="normal" in="SourceGraphic" in2="BackgroundImageFix" result="shape"></feBlend><feGaussianBlur stdDeviation="1.05638" result="effect1_foregroundBlur_85_3927"></feGaussianBlur></filter></defs></svg> 