<?xml version="1.0" encoding="UTF-8"?> <svg xmlns="http://www.w3.org/2000/svg" width="42" height="42" viewBox="0 0 42 42" fill="none"><path d="M0 20.7692C0 9.29871 9.2991 0 20.7696 0V0C32.2402 0 41.5393 9.29871 41.5393 20.7692V20.7692C41.5393 32.2398 32.2402 41.5385 20.7696 41.5385V41.5385C9.2991 41.5385 0 32.2398 0 20.7692V20.7692Z" fill="white" fill-opacity="0.05"></path><path d="M30.6249 13.1685C31.2143 13.9296 31.7053 14.7645 32.1228 15.6485L20.7781 24.0218L16.0146 21.026V17.441L20.7539 20.4122L30.6249 13.1685Z" fill="#21A038"></path><path d="M11.1803 20.7785C11.1803 20.6066 11.1803 20.4593 11.2049 20.2874L8.33193 20.1401C8.33193 20.3366 8.30737 20.5576 8.30737 20.754C8.30737 24.1917 9.70701 27.31 11.9661 29.5694L14.0041 27.5313C12.2607 25.8125 11.1803 23.4305 11.1803 20.7785Z" fill="url(#paint0_linear_3_460)"></path><path d="M20.7562 11.2016C20.9281 11.2016 21.0754 11.2016 21.2473 11.2261L21.3947 8.35317C21.1982 8.35317 20.9772 8.32861 20.7808 8.32861C17.3431 8.32861 14.2247 9.72825 11.9653 11.9873L14.0034 14.0254C15.7222 12.2819 18.1288 11.2016 20.7562 11.2016Z" fill="url(#paint1_linear_3_460)"></path><path d="M20.7583 30.357C20.5864 30.357 20.4391 30.357 20.2672 30.3325L20.1199 33.2054C20.3163 33.2054 20.5373 33.23 20.7338 33.23C24.1715 33.23 27.2898 31.8303 29.5492 29.5713L27.5111 27.5332C25.7923 29.3012 23.4103 30.357 20.7583 30.357Z" fill="url(#paint2_linear_3_460)"></path><path d="M26.1569 12.8749L28.5878 11.0823C26.4516 9.36352 23.726 8.30762 20.7546 8.30762V11.1806C22.7681 11.2051 24.6343 11.819 26.1569 12.8749Z" fill="url(#paint3_linear_3_460)"></path><path d="M33.2295 20.7775C33.2295 20.0163 33.1559 19.2796 33.0331 18.543L30.3566 20.5319V20.7775C30.3566 23.6013 29.1288 26.1304 27.189 27.874L29.1288 30.0103C31.6334 27.7513 33.2295 24.4366 33.2295 20.7775Z" fill="#21A038"></path><path d="M20.7548 30.3576C17.9309 30.3576 15.4018 29.1298 13.6582 27.1899L11.522 29.1298C13.8056 31.659 17.0958 33.2305 20.7549 33.2305L20.7548 30.3576Z" fill="url(#paint4_linear_3_460)"></path><path d="M14.3479 13.6827L12.4081 11.5464C9.8789 13.83 8.30737 17.1202 8.30737 20.7789H11.1803C11.1803 17.9796 12.4081 15.4263 14.3479 13.6827Z" fill="url(#paint5_linear_3_460)"></path><defs><linearGradient id="paint0_linear_3_460" x1="11.6588" y1="29.2363" x2="8.72622" y2="20.7593" gradientUnits="userSpaceOnUse"><stop offset="0.1444" stop-color="#F2E913"></stop><stop offset="0.3037" stop-color="#E7E518"></stop><stop offset="0.5823" stop-color="#CADB26"></stop><stop offset="0.891" stop-color="#A3CD39"></stop></linearGradient><linearGradient id="paint1_linear_3_460" x1="12.7726" y1="11.6519" x2="20.2226" y2="8.81302" gradientUnits="userSpaceOnUse"><stop offset="0.0592" stop-color="#0FA8E0"></stop><stop offset="0.5385" stop-color="#0099F9"></stop><stop offset="0.9234" stop-color="#0291EB"></stop></linearGradient><linearGradient id="paint2_linear_3_460" x1="19.9526" y1="30.7905" x2="28.8321" y2="28.7838" gradientUnits="userSpaceOnUse"><stop offset="0.1226" stop-color="#A3CD39"></stop><stop offset="0.2846" stop-color="#86C339"></stop><stop offset="0.8693" stop-color="#21A038"></stop></linearGradient><linearGradient id="paint3_linear_3_460" x1="20.159" y1="10.1451" x2="27.5434" y2="12.4237" gradientUnits="userSpaceOnUse"><stop offset="0.0566" stop-color="#0291EB"></stop><stop offset="0.79" stop-color="#0C8ACB"></stop></linearGradient><linearGradient id="paint4_linear_3_460" x1="12.2419" y1="29.6028" x2="20.1712" y2="32.5666" gradientUnits="userSpaceOnUse"><stop offset="0.1324" stop-color="#F2E913"></stop><stop offset="0.2977" stop-color="#EBE716"></stop><stop offset="0.5306" stop-color="#D9E01F"></stop><stop offset="0.8023" stop-color="#BBD62D"></stop><stop offset="0.9829" stop-color="#A3CD39"></stop></linearGradient><linearGradient id="paint5_linear_3_460" x1="10.491" y1="21.131" x2="13.6619" y2="12.8826" gradientUnits="userSpaceOnUse"><stop offset="0.0698" stop-color="#A3CD39"></stop><stop offset="0.2599" stop-color="#81C55F"></stop><stop offset="0.9216" stop-color="#0FA8E0"></stop></linearGradient></defs></svg> 