<?xml version="1.0" encoding="UTF-8"?> <svg xmlns="http://www.w3.org/2000/svg" width="280" height="150" viewBox="0 0 280 150" fill="none"><g clip-path="url(#clip0_27_77)"><rect width="280" height="150" transform="matrix(1 -8.74228e-08 -8.74228e-08 -1 0 150)" fill="#8D9095"></rect><g opacity="0.8" filter="url(#filter0_i_27_77)" data-figma-bg-blur-radius="13.7948"><path d="M238.323 97.2651L254.662 99.7155L225.224 87.1981L238.323 97.2651ZM138.198 166.219L128.808 179.813L128.808 179.813L138.198 166.219ZM222.195 24.4318L211.442 36.9746L222.195 24.4318ZM68.2364 184.683L60.9808 199.526L60.9808 199.526L68.2364 184.683ZM164.222 35.6716L176.097 24.1851L164.222 35.6716ZM16.4504 166.668L24.0898 152.019L16.4504 166.668ZM86.9268 45.3903L98.7163 56.9642L75.2982 33.6547L86.9268 45.3903ZM293.566 129.007C277.382 135.094 268.81 134.335 264.78 132.941C261.332 131.748 258.911 129.297 257.057 124.78C255.057 119.909 254.299 113.809 254.229 108.252C254.195 105.599 254.321 103.334 254.45 101.77C254.514 100.994 254.578 100.406 254.621 100.047C254.642 99.8678 254.658 99.747 254.666 99.6897C254.67 99.6611 254.672 99.6486 254.671 99.6526C254.671 99.6546 254.67 99.6608 254.668 99.6713C254.668 99.6765 254.667 99.6828 254.666 99.6902C254.665 99.6939 254.664 99.7002 254.664 99.702C254.663 99.7086 254.662 99.7155 238.323 97.2651C221.985 94.8147 221.984 94.8221 221.983 94.8298C221.982 94.8328 221.981 94.8409 221.98 94.8468C221.978 94.8587 221.977 94.8717 221.974 94.886C221.97 94.9144 221.965 94.9475 221.96 94.9852C221.949 95.0605 221.936 95.1542 221.921 95.2655C221.891 95.488 221.853 95.7815 221.81 96.1404C221.725 96.8574 221.62 97.8405 221.52 99.0445C221.322 101.442 221.14 104.774 221.189 108.669C221.284 116.207 222.251 127.001 226.49 137.327C230.873 148.007 239.204 159.055 253.974 164.166C268.162 169.076 285.276 167.427 305.199 159.933L293.566 129.007ZM225.224 87.1981C207.712 109.985 188.454 129.138 171.98 140.853C163.671 146.762 156.859 150.21 151.915 151.652C146.762 153.155 146.373 151.787 147.587 152.625L128.808 179.813C139.292 187.054 151.501 186.192 161.167 183.372C171.044 180.492 181.276 174.787 191.128 167.781C210.976 153.668 232.511 131.942 251.423 107.332L225.224 87.1981ZM147.587 152.625C148.953 153.569 150.441 155.365 151.053 157.741C151.557 159.702 151.134 160.79 151.277 160.27C151.661 158.88 153.295 155.502 157.551 149.77C165.81 138.649 179.084 124.89 193.587 109.515C207.449 94.82 222.501 78.5734 231.993 64.0492C236.672 56.8904 241.056 48.6103 242.525 40.0718C244.161 30.5556 242.163 19.7885 232.948 11.889L211.442 36.9746C209.853 35.6126 210.11 33.6 209.96 34.4714C209.642 36.3205 208.198 40.0612 204.335 45.9722C196.743 57.5876 183.856 71.6771 169.551 86.8422C155.887 101.328 140.764 116.954 131.024 130.07C126.281 136.457 121.514 143.911 119.425 151.481C118.332 155.443 117.655 160.543 119.053 165.976C120.558 171.824 124.087 176.552 128.808 179.813L147.587 152.625ZM232.948 11.889C228.14 7.76707 222.293 5.34254 215.88 5.08508C209.795 4.84078 204.327 6.58466 199.858 8.7965C191.262 13.0512 183.271 20.6028 176.238 28.484C161.895 44.5561 146.237 68.2114 131.455 90.8394C116.246 114.12 101.839 136.514 89.1315 152.212C82.713 160.141 77.5923 165.251 73.8399 167.875C69.5618 170.866 71.4038 167.842 75.492 169.841L60.9808 199.526C73.6502 205.719 85.6725 199.919 92.7734 194.955C100.4 189.622 107.857 181.597 114.814 173.002C128.857 155.654 144.394 131.448 159.117 108.911C174.267 85.72 188.529 64.3373 200.891 50.4841C207.21 43.4027 211.767 39.77 214.515 38.41C215.718 37.8145 215.62 38.1436 214.555 38.1008C213.162 38.0449 211.983 37.4382 211.442 36.9746L232.948 11.889ZM75.492 169.841C75.0433 169.621 75.9382 169.958 76.792 171.382C77.6802 172.864 77.702 174.149 77.6834 174.429C77.6775 174.518 77.7304 173.765 78.5223 171.968C79.289 170.228 80.5308 167.997 82.3755 165.255C90.0898 153.792 104.27 139.199 120.605 123.066C136.242 107.622 153.747 90.8659 165.633 76.5993C171.493 69.5648 177.079 61.8824 180.202 54.3157C183.207 47.0346 185.904 34.3234 176.097 24.1851L152.348 47.1581C148.254 42.9261 150.919 38.6574 149.659 41.7092C148.517 44.4755 145.605 49.0165 140.246 55.4498C129.691 68.1189 113.87 83.2765 97.3861 99.5571C81.5998 115.149 64.8652 132.092 54.9622 146.808C50.195 153.892 45.3393 162.812 44.7136 172.241C44.3711 177.404 45.2779 183.075 48.449 188.367C51.5858 193.601 56.1617 197.17 60.9808 199.526L75.492 169.841ZM176.097 24.1851C167.099 14.8827 155.505 13.2265 145.017 16.0782C135.766 18.5936 127.133 24.5471 119.712 30.8568C104.611 43.6957 88.3212 63.516 73.3894 82.638C57.9066 102.466 43.845 121.581 31.8283 135.598C25.8048 142.624 21.1339 147.35 17.8104 149.908C16.118 151.21 15.6292 151.274 16.1821 151.088C16.8877 150.851 20.1997 149.99 24.0898 152.019L8.81101 181.317C15.5026 184.806 22.1636 183.935 26.7022 182.411C31.088 180.938 34.9163 178.438 37.9618 176.094C44.114 171.359 50.6019 164.466 56.9139 157.104C69.568 142.343 84.8836 121.606 99.4323 102.974C114.532 83.6373 128.927 66.3925 141.115 56.03C147.338 50.739 151.499 48.5578 153.687 47.9629C154.551 47.7279 154.411 47.938 153.665 47.7653C152.787 47.5619 152.312 47.1212 152.348 47.1581L176.097 24.1851ZM24.0898 152.019C24.2839 152.12 24.9755 152.572 25.5727 153.51C26.1357 154.394 26.18 155.028 26.1702 154.917C26.1116 154.25 26.2841 151.648 28.3939 146.513C32.5129 136.487 41.2169 123.342 51.9707 109.524C62.5028 95.9913 74.1514 82.8793 83.2417 73.0832C87.7699 68.2035 91.6258 64.1868 94.3394 61.4001C95.6956 60.0075 96.7645 58.9242 97.4872 58.1961C97.8485 57.8321 98.1231 57.5571 98.3036 57.3767C98.3939 57.2866 98.4606 57.2201 98.5029 57.1781C98.524 57.157 98.539 57.1421 98.5478 57.1334C98.5522 57.129 98.555 57.1262 98.5563 57.125C98.5569 57.1244 98.5567 57.1246 98.557 57.1243C98.5564 57.1249 98.5553 57.1259 86.9268 45.3903C75.2982 33.6547 75.2964 33.6565 75.2942 33.6587C75.2929 33.6599 75.2903 33.6625 75.2877 33.6651C75.2826 33.6701 75.276 33.6767 75.2677 33.6849C75.2512 33.7013 75.2284 33.7239 75.1995 33.7527C75.1416 33.8104 75.0589 33.8927 74.9525 33.999C74.7397 34.2115 74.4317 34.5201 74.036 34.9187C73.2447 35.716 72.1018 36.8744 70.6672 38.3476C67.7994 41.2925 63.7576 45.5033 59.0211 50.6075C49.5822 60.7793 37.2339 74.6606 25.8949 89.2299C14.7777 103.514 3.73663 119.58 -2.16967 133.956C-5.07265 141.022 -7.48284 149.42 -6.74511 157.811C-5.90231 167.396 -0.919707 176.242 8.81101 181.317L24.0898 152.019ZM86.9268 45.3903C75.1372 33.8164 75.1428 33.8107 75.1482 33.8053C75.1496 33.8038 75.1548 33.7985 75.1578 33.7955C75.1637 33.7895 75.1688 33.7843 75.173 33.7801C75.1815 33.7715 75.1864 33.7666 75.1878 33.7651C75.1907 33.7622 75.1797 33.7733 75.1548 33.7978C75.1051 33.8468 75.0003 33.9494 74.8412 34.1009C74.5228 34.4041 73.9885 34.9022 73.2455 35.559C71.7578 36.8742 69.4449 38.8153 66.3648 41.0964C60.186 45.6726 51.0388 51.529 39.3777 56.4737C16.2715 66.2713 -16.8329 72.5969 -57.3083 57.9369L-68.5608 89.0041C-18.8197 107.02 23.0065 99.3056 52.2769 86.8941C66.8041 80.7342 78.2066 73.4438 86.0305 67.6493C89.9517 64.7452 93.0034 62.195 95.1299 60.3152C96.194 59.3745 97.0293 58.5992 97.6286 58.0284C97.9284 57.7429 98.1695 57.5082 98.351 57.3293C98.4418 57.2399 98.5176 57.1643 98.5786 57.1033C98.609 57.0727 98.6357 57.0458 98.6587 57.0226C98.6702 57.011 98.6807 57.0004 98.6903 56.9906C98.6951 56.9857 98.7016 56.9791 98.704 56.9767C98.7103 56.9703 98.7163 56.9642 86.9268 45.3903Z" fill="url(#paint0_linear_27_77)" fill-opacity="0.3"></path></g><g filter="url(#filter1_f_27_77)"><ellipse cx="182.677" cy="49.9396" rx="76.5195" ry="82.4705" transform="rotate(63.9834 182.677 49.9396)" fill="url(#paint1_linear_27_77)" fill-opacity="0.8"></ellipse></g></g><defs><filter id="filter0_i_27_77" x="-82.3554" y="-8.73283" width="401.349" height="224.738" filterUnits="userSpaceOnUse" color-interpolation-filters="sRGB"><feFlood flood-opacity="0" result="BackgroundImageFix"></feFlood><feBlend mode="normal" in="SourceGraphic" in2="BackgroundImageFix" result="shape"></feBlend><feColorMatrix in="SourceAlpha" type="matrix" values="0 0 0 0 0 0 0 0 0 0 0 0 0 0 0 0 0 0 127 0" result="hardAlpha"></feColorMatrix><feOffset></feOffset><feGaussianBlur stdDeviation="5.38335"></feGaussianBlur><feComposite in2="hardAlpha" operator="arithmetic" k2="-1" k3="1"></feComposite><feColorMatrix type="matrix" values="0 0 0 0 1 0 0 0 0 1 0 0 0 0 1 0 0 0 0.25 0"></feColorMatrix><feBlend mode="normal" in2="shape" result="effect1_innerShadow_27_77"></feBlend></filter><filter id="filter1_f_27_77" x="25.3103" y="-103.763" width="314.733" height="307.406" filterUnits="userSpaceOnUse" color-interpolation-filters="sRGB"><feFlood flood-opacity="0" result="BackgroundImageFix"></feFlood><feBlend mode="normal" in="SourceGraphic" in2="BackgroundImageFix" result="shape"></feBlend><feGaussianBlur stdDeviation="37.9938" result="effect1_foregroundBlur_27_77"></feGaussianBlur></filter><linearGradient id="paint0_linear_27_77" x1="-12.904" y1="189.788" x2="227.376" y2="-6.62559" gradientUnits="userSpaceOnUse"><stop stop-color="#8D9095"></stop><stop offset="0.512378" stop-color="white" stop-opacity="0.5"></stop><stop offset="1" stop-color="#8D9095"></stop></linearGradient><linearGradient id="paint1_linear_27_77" x1="208.614" y1="5.56193" x2="95.6911" y2="15.3234" gradientUnits="userSpaceOnUse"><stop stop-color="white" stop-opacity="0.8"></stop><stop offset="1" stop-color="white" stop-opacity="0"></stop></linearGradient><clipPath id="clip0_27_77"><rect width="280" height="150" fill="white" transform="matrix(1 -8.74228e-08 -8.74228e-08 -1 0 150)"></rect></clipPath></defs></svg> 