<?xml version="1.0" encoding="UTF-8"?> <svg xmlns="http://www.w3.org/2000/svg" width="33" height="33" viewBox="0 0 33 33" fill="none"><rect x="0.896484" y="0.894531" width="32" height="32" rx="8" fill="url(#paint0_linear_37487_2897)"></rect><path fill-rule="evenodd" clip-rule="evenodd" d="M10.6835 10.0762C9.71827 10.1667 8.98047 10.9769 8.98047 11.9464V19.1997C8.98047 20.8947 8.98047 21.7422 9.30439 22.4022C9.5895 22.9832 10.0458 23.4628 10.6117 23.7766C11.2547 24.133 12.1012 24.1754 13.7941 24.26L19.4941 24.545C21.347 24.6377 22.2734 24.684 22.9852 24.3521C23.611 24.0604 24.1242 23.5722 24.4468 22.9618C24.8138 22.2674 24.8138 21.3398 24.8138 19.4847V17.7557C24.8138 16.0606 24.8138 15.2131 24.4899 14.5531C24.2129 13.9886 23.7743 13.5198 23.2305 13.2059V12.3774C23.2305 10.5117 21.6257 9.05041 19.7682 9.22455L10.6835 10.0762ZM21.2513 20.061C21.9071 20.061 22.4388 19.5293 22.4388 18.8735C22.4388 18.2176 21.9071 17.686 21.2513 17.686C20.5955 17.686 20.0638 18.2176 20.0638 18.8735C20.0638 19.5293 20.5955 20.061 21.2513 20.061ZM19.916 10.801C20.8448 10.7139 21.6471 11.4446 21.6471 12.3774C21.6471 13.3102 21.6471 12.7975 21.6471 12.7975L20.0001 12.6953L10.7986 12.2352C10.6633 12.2071 10.5638 12.0875 10.5638 11.9464C10.5638 11.7941 10.6797 11.6669 10.8313 11.6527L19.916 10.801Z" fill="white"></path><defs><linearGradient id="paint0_linear_37487_2897" x1="16.8965" y1="0.894531" x2="16.8965" y2="32.8945" gradientUnits="userSpaceOnUse"><stop stop-color="#BCEC30"></stop><stop offset="0.533556" stop-color="#19CD10"></stop><stop offset="1" stop-color="#01B089"></stop></linearGradient></defs></svg> 