<?xml version="1.0" encoding="UTF-8"?> <svg xmlns="http://www.w3.org/2000/svg" width="30" height="30" viewBox="0 0 30 30" fill="none"><path fill-rule="evenodd" clip-rule="evenodd" d="M15 27.5C21.9036 27.5 27.5 21.9036 27.5 15C27.5 8.09644 21.9036 2.5 15 2.5C8.09644 2.5 2.5 8.09644 2.5 15C2.5 21.9036 8.09644 27.5 15 27.5ZM13.75 15.625V8.125H16.25V15.625H13.75ZM13.125 20C13.125 18.9645 13.9645 18.125 15 18.125C16.0355 18.125 16.875 18.9645 16.875 20C16.875 21.0355 16.0355 21.875 15 21.875C13.9645 21.875 13.125 21.0355 13.125 20Z" fill="#FF9F0C"></path></svg> 