<?xml version="1.0" encoding="UTF-8"?> <svg xmlns="http://www.w3.org/2000/svg" width="96" height="22" viewBox="0 0 96 22" fill="none"><rect width="96" height="21" rx="10.5" transform="matrix(-1 8.74228e-08 8.74228e-08 1 96 0.500031)" fill="white" fill-opacity="0.05"></rect><path opacity="0.7" fill-rule="evenodd" clip-rule="evenodd" d="M84 16C86.7614 16 89 13.7615 89 11C89 8.23862 86.7614 6.00004 84 6.00004C81.2386 6.00004 79 8.23862 79 11C79 13.7615 81.2386 16 84 16ZM85.0595 11.057C85.3681 10.761 85.6927 10.4496 85.6927 9.87861C85.6927 8.9929 85.0498 8.50004 84.1213 8.50004C83.2641 8.50004 82.4998 9.00719 82.4998 10.05L82.4998 10.3572L83.3641 10.3572L83.3641 10.1286C83.3641 9.51433 83.6998 9.28576 84.1213 9.28576C84.5784 9.28576 84.8356 9.50004 84.8356 9.87861C84.8356 10.2062 84.6058 10.4439 84.355 10.7035C84.0534 11.0156 83.7213 11.3593 83.7213 11.9286L83.7213 12.1429L84.507 12.1429L84.5141 11.9643C84.5308 11.564 84.789 11.3164 85.0595 11.057ZM83.6141 13.5C83.6141 13.7643 83.8427 14 84.1141 14C84.3927 14 84.6141 13.7643 84.6141 13.5C84.6141 13.2286 84.3927 13 84.1141 13C83.8427 13 83.6141 13.2286 83.6141 13.5Z" fill="white"></path><path opacity="0.7" d="M10.846 11.74L10.846 9.50004L11.846 9.50004L11.846 14.5L10.846 14.5L10.846 12.64C10.566 12.73 10.136 12.78 9.78598 12.78C8.31598 12.78 7.59598 12.15 7.59598 10.64L7.59598 9.50004L8.59598 9.50004L8.59598 10.63C8.59598 11.53 9.04598 11.86 9.86598 11.86C10.356 11.86 10.656 11.79 10.846 11.74ZM17.8452 12.34L13.9252 12.34C14.0452 13.21 14.6052 13.72 15.4452 13.72C16.0552 13.72 16.4552 13.45 16.6552 13L17.7352 13C17.4252 14.03 16.5552 14.6 15.4052 14.6C13.9852 14.6 12.9452 13.53 12.9452 12C12.9452 10.47 13.9852 9.40004 15.4052 9.40004C16.8252 9.40004 17.8652 10.47 17.8652 12C17.8652 12.12 17.8552 12.23 17.8452 12.34ZM15.4052 10.28C14.5952 10.28 14.0552 10.78 13.9352 11.62L16.8752 11.62C16.7552 10.78 16.2052 10.28 15.4052 10.28ZM22.4093 14.5L21.2893 14.5L19.8993 10.18L19.8993 14.5L18.9793 14.5L18.9793 9.50004L20.6693 9.50004L21.9093 13.62L23.1493 9.50004L24.8093 9.50004L24.8093 14.5L23.8093 14.5L23.8093 10.18L22.4093 14.5ZM28.0384 13.58L28.5284 13.58C28.7784 13.11 28.9784 12.43 28.9984 9.50004L32.8484 9.50004L32.8484 13.58L33.5484 13.58L33.5484 15.85L32.6284 15.85L32.6284 14.5L28.9584 14.5L28.9584 15.85L28.0384 15.85L28.0384 13.58ZM29.7984 12.39C29.7184 12.97 29.6384 13.33 29.5384 13.58L31.8484 13.58L31.8484 10.42L29.9084 10.42C29.8984 11.32 29.8584 11.94 29.7984 12.39ZM36.7154 14.6C35.2654 14.6 34.1854 13.53 34.1854 12C34.1854 10.47 35.2654 9.40004 36.7154 9.40004C38.1654 9.40004 39.2454 10.47 39.2454 12C39.2454 13.53 38.1654 14.6 36.7154 14.6ZM36.7154 13.68C37.5854 13.68 38.2454 13.01 38.2454 12C38.2454 10.99 37.5854 10.32 36.7154 10.32C35.8454 10.32 35.1854 10.99 35.1854 12C35.1854 13.01 35.8454 13.68 36.7154 13.68ZM41.3562 9.50004L41.3562 11.72L43.5062 9.50004L44.8362 9.50004L42.4862 11.78L45.0162 14.5L43.7462 14.5L41.3562 11.87L41.3562 14.5L40.3562 14.5L40.3562 9.50004L41.3562 9.50004ZM47.1185 14.6C46.2285 14.6 45.4185 14.17 45.4185 13.18C45.4185 11.02 48.7885 12.1 48.7885 10.96C48.7885 10.47 48.3185 10.2 47.7085 10.2C47.0585 10.2 46.6085 10.53 46.6085 11.18L45.5685 11.18C45.5685 9.89004 46.6085 9.40004 47.7085 9.40004C48.7885 9.40004 49.7885 9.84005 49.7885 11L49.7885 14.5L48.8085 14.5L48.8085 13.66C48.4785 14.32 47.8385 14.6 47.1185 14.6ZM46.4385 13.12C46.4385 13.55 46.8085 13.76 47.3185 13.76C48.0885 13.76 48.8085 13.31 48.8085 12.44L48.8085 12.08C47.9585 12.49 46.4385 12.28 46.4385 13.12ZM54.9865 9.50005L54.9865 11.71L56.9165 9.50005L58.1965 9.50005L56.0965 11.78L58.3865 14.5L57.1565 14.5L54.9865 11.87L54.9865 14.5L53.9865 14.5L53.9865 11.89L51.8165 14.5L50.5565 14.5L52.8865 11.78L50.7365 9.50005L52.0665 9.50005L53.9865 11.7L53.9865 9.50005L54.9865 9.50005ZM63.4702 12.34L59.5502 12.34C59.6702 13.21 60.2302 13.72 61.0702 13.72C61.6802 13.72 62.0802 13.45 62.2802 13L63.3602 13C63.0502 14.03 62.1802 14.6 61.0302 14.6C59.6102 14.6 58.5702 13.53 58.5702 12C58.5702 10.47 59.6102 9.40005 61.0302 9.40005C62.4502 9.40005 63.4902 10.47 63.4902 12C63.4902 12.12 63.4802 12.23 63.4702 12.34ZM61.0302 10.28C60.2202 10.28 59.6802 10.78 59.5602 11.62L62.5002 11.62C62.3802 10.78 61.8302 10.28 61.0302 10.28ZM66.4787 14.5L65.4787 14.5L65.4787 10.42L63.8587 10.42L63.8587 9.50005L68.0987 9.50005L68.0987 10.42L66.4787 10.42L66.4787 14.5ZM73.48 12.34L69.56 12.34C69.68 13.21 70.24 13.72 71.08 13.72C71.69 13.72 72.09 13.45 72.29 13L73.37 13C73.06 14.03 72.19 14.6 71.04 14.6C69.62 14.6 68.58 13.53 68.58 12C68.58 10.47 69.62 9.40005 71.04 9.40005C72.46 9.40005 73.5 10.47 73.5 12C73.5 12.12 73.49 12.23 73.48 12.34ZM71.04 10.28C70.23 10.28 69.69 10.78 69.57 11.62L72.51 11.62C72.39 10.78 71.84 10.28 71.04 10.28Z" fill="white"></path></svg> 