<?xml version="1.0" encoding="UTF-8"?> <svg xmlns="http://www.w3.org/2000/svg" width="96" height="22" viewBox="0 0 96 22" fill="none"><rect width="96" height="21" rx="10.5" transform="matrix(-1 8.74228e-08 8.74228e-08 1 96 0.5)" fill="white" fill-opacity="0.05"></rect><path opacity="0.7" fill-rule="evenodd" clip-rule="evenodd" d="M84 16C86.7614 16 89 13.7614 89 11C89 8.23859 86.7614 6.00002 84 6.00002C81.2386 6.00002 79 8.23859 79 11C79 13.7614 81.2386 16 84 16ZM85.0595 11.0569C85.3681 10.7609 85.6927 10.4496 85.6927 9.87859C85.6927 8.99287 85.0498 8.50002 84.1213 8.50002C83.2641 8.50002 82.4998 9.00716 82.4998 10.05L82.4998 10.3572L83.3641 10.3572L83.3641 10.1286C83.3641 9.5143 83.6998 9.28573 84.1213 9.28573C84.5784 9.28573 84.8356 9.50002 84.8356 9.87859C84.8356 10.2062 84.6058 10.4439 84.355 10.7035C84.0534 11.0156 83.7213 11.3593 83.7213 11.9286L83.7213 12.1429L84.507 12.1429L84.5141 11.9643C84.5308 11.564 84.789 11.3163 85.0595 11.0569ZM83.6141 13.5C83.6141 13.7643 83.8427 14 84.1141 14C84.3927 14 84.6141 13.7643 84.6141 13.5C84.6141 13.2286 84.3927 13 84.1141 13C83.8427 13 83.6141 13.2286 83.6141 13.5Z" fill="white"></path><path opacity="0.7" d="M9.03199 14.5L8.03199 14.5L8.03199 9.50002L12.292 9.50002L12.292 14.5L11.292 14.5L11.292 10.42L9.03199 10.42L9.03199 14.5ZM15.9439 14.6C14.4939 14.6 13.4139 13.53 13.4139 12C13.4139 10.47 14.4939 9.40002 15.9439 9.40002C17.3939 9.40002 18.4739 10.47 18.4739 12C18.4739 13.53 17.3939 14.6 15.9439 14.6ZM15.9439 13.68C16.8139 13.68 17.4739 13.01 17.4739 12C17.4739 10.99 16.8139 10.32 15.9439 10.32C15.0739 10.32 14.4139 10.99 14.4139 12C14.4139 13.01 15.0739 13.68 15.9439 13.68ZM22.555 11.74L22.555 9.50002L23.555 9.50002L23.555 14.5L22.555 14.5L22.555 12.64C22.275 12.73 21.845 12.78 21.495 12.78C20.025 12.78 19.305 12.15 19.305 10.64L19.305 9.50002L20.305 9.50002L20.305 10.63C20.305 11.53 20.755 11.86 21.575 11.86C22.065 11.86 22.365 11.79 22.555 11.74ZM29.5542 12.34L25.6342 12.34C25.7542 13.21 26.3142 13.72 27.1542 13.72C27.7642 13.72 28.1642 13.45 28.3642 13L29.4442 13C29.1342 14.03 28.2642 14.6 27.1142 14.6C25.6942 14.6 24.6542 13.53 24.6542 12C24.6542 10.47 25.6942 9.40002 27.1142 9.40002C28.5342 9.40002 29.5742 10.47 29.5742 12C29.5742 12.12 29.5642 12.23 29.5542 12.34ZM27.1142 10.28C26.3042 10.28 25.7642 10.78 25.6442 11.62L28.5842 11.62C28.4642 10.78 27.9142 10.28 27.1142 10.28ZM34.1182 14.5L32.9982 14.5L31.6082 10.18L31.6082 14.5L30.6882 14.5L30.6882 9.50002L32.3782 9.50002L33.6182 13.62L34.8582 9.50002L36.5182 9.50002L36.5182 14.5L35.5182 14.5L35.5182 10.18L34.1182 14.5ZM40.2427 15.06C39.8227 16.25 39.3327 17.08 38.1027 17.08C37.8227 17.08 37.5427 17.03 37.3527 16.97L37.3527 16.09C37.5427 16.15 37.7727 16.2 38.0127 16.2C38.6427 16.2 38.9827 15.83 39.3027 15.05L37.3227 9.50002L38.3227 9.50002L39.7727 13.69L41.2127 9.50002L42.2127 9.50002L40.2427 15.06ZM49.2018 14.5L48.2018 14.5L48.2018 10.42L46.4118 10.42C46.3918 11.59 46.3418 12.38 46.2618 12.92C46.0518 14.17 45.6118 14.5 44.8118 14.5L44.6318 14.5L44.6318 13.58L44.7118 13.58C44.9818 13.58 45.2018 13.42 45.3018 13.04C45.4218 12.61 45.4918 11.75 45.5018 9.50002L49.2018 9.50002L49.2018 14.5ZM55.1985 14.5L54.2385 14.5L54.2385 10.51L51.9485 14.5L50.6785 14.5L50.6785 9.50002L51.6385 9.50002L51.6385 13.49L53.9285 9.50002L55.1985 9.50002L55.1985 14.5ZM56.1146 13.58L56.6046 13.58C56.8546 13.11 57.0546 12.43 57.0746 9.50002L60.9246 9.50002L60.9246 13.58L61.6246 13.58L61.6246 15.85L60.7046 15.85L60.7046 14.5L57.0346 14.5L57.0346 15.85L56.1146 15.85L56.1146 13.58ZM57.8746 12.39C57.7946 12.97 57.7146 13.33 57.6146 13.58L59.9246 13.58L59.9246 10.42L57.9846 10.42C57.9746 11.32 57.9346 11.94 57.8746 12.39ZM67.1616 12.34L63.2416 12.34C63.3616 13.21 63.9216 13.72 64.7616 13.72C65.3716 13.72 65.7716 13.45 65.9716 13L67.0516 13C66.7416 14.03 65.8716 14.6 64.7216 14.6C63.3016 14.6 62.2616 13.53 62.2616 12C62.2616 10.47 63.3016 9.40002 64.7216 9.40002C66.1416 9.40003 67.1816 10.47 67.1816 12C67.1816 12.12 67.1716 12.23 67.1616 12.34ZM64.7216 10.28C63.9116 10.28 63.3716 10.78 63.2516 11.62L66.1916 11.62C66.0716 10.78 65.5216 10.28 64.7216 10.28ZM69.2957 17L68.2957 17L68.2957 9.50003L69.2957 9.50003L69.2957 10.25C69.6857 9.72003 70.2657 9.40003 70.9357 9.40003C72.3057 9.40003 73.3357 10.47 73.3357 12C73.3357 13.53 72.3057 14.6 70.9357 14.6C70.2657 14.6 69.6857 14.28 69.2957 13.75L69.2957 17ZM70.8157 13.68C71.6857 13.68 72.3357 13.01 72.3357 12C72.3357 10.99 71.6857 10.32 70.8157 10.32C69.9457 10.32 69.2957 10.99 69.2957 12C69.2957 13.01 69.9457 13.68 70.8157 13.68Z" fill="white"></path></svg> 