<?xml version="1.0" encoding="UTF-8"?> <svg xmlns="http://www.w3.org/2000/svg" width="102" height="39" viewBox="0 0 102 39" fill="none"> <g clip-path="url(#clip0_15767_11878)"> <path d="M8.9635 20.6161L9.80092 24.3123C9.37393 24.4928 8.91422 24.6653 8.42175 24.8298C7.94567 24.9776 7.45322 25.0926 6.94439 25.1748C6.45194 25.2571 5.96766 25.2982 5.49158 25.2982C4.78563 25.2982 4.13715 25.1832 3.54611 24.9532C2.9551 24.7064 2.47901 24.3121 2.11785 23.7702C1.77306 23.2116 1.60066 22.4641 1.60066 21.5277V15.5895H0V12.0658H1.60066V8H6.27935V12.0658H8.81619V15.5895H6.27935V19.8769C6.27935 20.3042 6.36974 20.6081 6.55049 20.7886C6.73089 20.9527 6.97712 21.0348 7.28917 21.0348C7.51904 21.0348 7.78164 20.9938 8.07697 20.912C8.37265 20.8297 8.66817 20.7311 8.9635 20.6161ZM11.0077 20.5915V12.0658H15.6864V19.5319C15.6864 20.0906 15.8095 20.5342 16.0557 20.8628C16.3187 21.1747 16.6717 21.3306 17.1147 21.3306C17.3609 21.3306 17.6071 21.2979 17.8533 21.2324C18.0999 21.1665 18.3464 21.035 18.5926 20.8377C18.8551 20.6408 19.1096 20.3617 19.3559 20.0003V12.0658H24.0345V19.8524C24.0345 20.296 24.1001 20.6081 24.2315 20.7886C24.3631 20.9527 24.5929 21.0513 24.921 21.0845V25.0269C24.5107 25.1091 24.1414 25.1748 23.8129 25.224C23.4845 25.2567 23.1972 25.2731 22.9509 25.2731C22.1632 25.2731 21.5395 25.1253 21.0797 24.8298C20.62 24.5339 20.3246 24.0821 20.1932 23.4744L20.0946 23.0065C19.4871 23.8112 18.7566 24.3942 17.903 24.7556C17.0657 25.1006 16.1136 25.2731 15.0465 25.2731C13.7495 25.2731 12.748 24.8708 12.0421 24.0661C11.3525 23.2611 11.0077 22.1029 11.0077 20.5915ZM34.9932 20.6161L35.8305 24.3123C35.4036 24.4928 34.9438 24.6653 34.4513 24.8298C33.9752 24.9776 33.4828 25.0926 32.9739 25.1748C32.4814 25.2571 31.9973 25.2982 31.5212 25.2982C30.8153 25.2982 30.1667 25.1832 29.5757 24.9532C28.9848 24.7064 28.5085 24.3121 28.1475 23.7702C27.8026 23.2116 27.6303 22.4641 27.6303 21.5277V15.5895H26.0296V12.0658H27.6303V8H32.3089V12.0658H34.8452V15.5895H32.3089V19.8769C32.3089 20.3042 32.3994 20.6081 32.58 20.7886C32.7605 20.9527 33.0067 21.0348 33.3187 21.0348C33.5486 21.0348 33.8112 20.9938 34.1067 20.912C34.4023 20.8297 34.6977 20.7311 34.9932 20.6161ZM43.3909 25.2731C42.2416 25.2731 41.2235 25.0924 40.3368 24.731C39.4504 24.3696 38.7036 23.8769 38.0962 23.2527C37.5053 22.6122 37.0537 21.8895 36.7417 21.0845C36.4462 20.2794 36.2986 19.4333 36.2986 18.5461C36.2986 17.6592 36.4462 16.8132 36.7417 16.0082C37.0537 15.1868 37.5053 14.4641 38.0962 13.8399C38.7036 13.2158 39.4504 12.7231 40.3368 12.3617C41.2235 12.0003 42.2416 11.8196 43.3909 11.8196C44.5561 11.8196 45.574 12.0003 46.4443 12.3617C47.3306 12.7231 48.0693 13.2158 48.6604 13.8399C49.2677 14.4641 49.7193 15.1868 50.0151 16.0082C50.3271 16.8132 50.483 17.6592 50.483 18.5461C50.483 19.4333 50.3271 20.2794 50.0151 21.0845C49.7193 21.8895 49.2677 22.6122 48.6604 23.2527C48.0693 23.8769 47.3306 24.3696 46.4443 24.731C45.574 25.0924 44.5561 25.2731 43.3909 25.2731ZM41.1005 18.5461C41.1005 19.1211 41.199 19.6222 41.3958 20.0494C41.5928 20.46 41.8637 20.7802 42.2086 21.0102C42.5534 21.2238 42.9475 21.3306 43.3909 21.3306C43.8338 21.3306 44.2277 21.2238 44.5725 21.0102C44.9173 20.7802 45.1883 20.46 45.3855 20.0494C45.5821 19.6222 45.6805 19.1211 45.6805 18.5461C45.6805 17.9714 45.5821 17.4787 45.3855 17.0678C45.1883 16.6409 44.9173 16.3207 44.5725 16.107C44.2277 15.877 43.8338 15.762 43.3909 15.762C42.9475 15.762 42.5534 15.877 42.2086 16.107C41.8637 16.3207 41.5928 16.6409 41.3958 17.0678C41.199 17.4787 41.1005 17.9714 41.1005 18.5461ZM60.924 11.8442V16.0573C60.0212 16.0573 59.2005 16.156 58.4618 16.3532C57.7228 16.5505 57.1728 16.8791 56.8116 17.3391V25.0269H52.1329V12.0658H56.4177V14.5299C56.8773 13.6591 57.452 12.9938 58.1417 12.5342C58.8312 12.0578 59.5618 11.8196 60.3331 11.8196C60.5139 11.8196 60.637 11.8196 60.7024 11.8196C60.7846 11.8196 60.8586 11.8278 60.924 11.8442ZM70.6266 20.6161L71.4641 24.3123C71.0371 24.4928 70.5774 24.6653 70.0849 24.8298C69.6089 24.9776 69.1164 25.0926 68.6075 25.1748C68.1151 25.2571 67.6309 25.2982 67.1548 25.2982C66.4488 25.2982 65.8004 25.1832 65.2093 24.9532C64.6182 24.7064 64.1422 24.3121 63.7811 23.7702C63.4363 23.2116 63.2638 22.4641 63.2638 21.5277V15.5895H61.6632V12.0658H63.2638V8H67.9426V12.0658H70.4788V15.5895H67.9426V19.8769C67.9426 20.3042 68.0329 20.6081 68.2137 20.7886C68.3941 20.9527 68.6403 21.0348 68.9524 21.0348C69.1822 21.0348 69.4448 20.9938 69.7401 20.912C70.0359 20.8297 70.3314 20.7311 70.6266 20.6161ZM79.0238 25.2731C77.875 25.2731 76.8571 25.0924 75.9704 24.731C75.0841 24.3696 74.3373 23.8769 73.7298 23.2527C73.1387 22.6122 72.6872 21.8895 72.3751 21.0845C72.0795 20.2794 71.9317 19.4333 71.9317 18.5461C71.9317 17.6592 72.0795 16.8132 72.3751 16.0082C72.6872 15.1868 73.1387 14.4641 73.7298 13.8399C74.3373 13.2158 75.0841 12.7231 75.9704 12.3617C76.8571 12.0003 77.875 11.8196 79.0238 11.8196C80.1895 11.8196 81.2076 12.0003 82.0779 12.3617C82.9643 12.7231 83.703 13.2158 84.294 13.8399C84.9013 14.4641 85.3529 15.1868 85.6485 16.0082C85.9604 16.8132 86.1161 17.6592 86.1161 18.5461C86.1161 19.4333 85.9604 20.2794 85.6485 21.0845C85.3529 21.8895 84.9013 22.6122 84.294 23.2527C83.703 23.8769 82.9643 24.3696 82.0779 24.731C81.2076 25.0924 80.1895 25.2731 79.0238 25.2731ZM76.7342 18.5461C76.7342 19.1211 76.8326 19.6222 77.0292 20.0494C77.2264 20.46 77.4974 20.7802 77.8422 21.0102C78.1871 21.2238 78.5809 21.3306 79.0238 21.3306C79.4672 21.3306 79.8613 21.2238 80.2061 21.0102C80.551 20.7802 80.8219 20.46 81.0189 20.0494C81.2158 19.6222 81.3142 19.1211 81.3142 18.5461C81.3142 17.9714 81.2158 17.4787 81.0189 17.0678C80.8219 16.6409 80.551 16.3207 80.2061 16.107C79.8613 15.877 79.4672 15.762 79.0238 15.762C78.5809 15.762 78.1871 15.877 77.8422 16.107C77.4974 16.3207 77.2264 16.6409 77.0292 17.0678C76.8326 17.4787 76.7342 17.9714 76.7342 18.5461ZM96.4839 25.2731C95.548 25.2731 94.7354 25.0924 94.0457 24.731C93.3562 24.3533 92.8226 23.8112 92.4452 23.1048V30.2756H87.7664V12.0658H91.8298V14.0124C92.2895 13.3061 92.8558 12.764 93.5285 12.3862C94.2182 12.0085 95.0472 11.8196 96.0158 11.8196C96.8861 11.8196 97.6824 11.9837 98.4047 12.312C99.127 12.6406 99.759 13.1088 100.301 13.7166C100.843 14.3243 101.261 15.0307 101.557 15.8357C101.852 16.6407 102 17.5278 102 18.4969C102 19.7947 101.762 20.9529 101.286 21.9715C100.81 22.9898 100.153 23.7946 99.3159 24.386C98.495 24.9774 97.551 25.2731 96.4839 25.2731ZM94.8587 21.3306C95.2035 21.3306 95.5154 21.2568 95.7942 21.109C96.09 20.9613 96.3444 20.7558 96.5576 20.4927C96.771 20.23 96.9353 19.9261 97.0501 19.5811C97.1651 19.2361 97.2226 18.8665 97.2226 18.4724C97.2226 18.0619 97.157 17.6923 97.0256 17.3637C96.9108 17.035 96.7382 16.7557 96.5084 16.5257C96.2786 16.2793 96.0078 16.0905 95.6962 15.9591C95.384 15.8277 95.0393 15.762 94.6617 15.762C94.4482 15.762 94.2348 15.7948 94.0212 15.8603C93.8242 15.9098 93.6354 15.992 93.455 16.107C93.2742 16.2056 93.0936 16.337 92.9131 16.5012C92.7487 16.6653 92.5928 16.8623 92.4452 17.0923V19.3349C92.5928 19.7126 92.7898 20.0576 93.0364 20.3699C93.2991 20.6654 93.5862 20.9036 93.8979 21.0845C94.2099 21.2486 94.5302 21.3306 94.8587 21.3306Z" fill="white"></path> </g> <defs> <clipPath id="clip0_15767_11878"> <rect width="102" height="22.4362" fill="white" transform="translate(0 8)"></rect> </clipPath> </defs> </svg> 