<?xml version="1.0" encoding="UTF-8"?> <svg xmlns="http://www.w3.org/2000/svg" width="134" height="130" viewBox="0 0 134 130" fill="none"><g clip-path="url(#clip0_37478_2892)"><path opacity="0.3" d="M43.5599 59.1052C27.1264 59.1052 14.8445 48.3802 14.8445 24.3354C14.8445 0.809529 27.1264 -10.2615 43.5599 -10.2615C59.9934 -10.2615 72.2753 0.809529 72.2753 24.3354C72.2753 48.3802 59.9934 59.1052 43.5599 59.1052ZM27.8183 120.515L117.77 -9.22356H136.798L46.8466 120.515H27.8183ZM43.5599 39.0391C47.7115 39.0391 49.0954 34.5415 49.0954 24.3354C49.0954 13.6104 47.7115 8.59382 43.5599 8.59382C39.4083 8.59382 37.8514 13.6104 37.8514 24.3354C37.8514 34.5415 39.4083 39.0391 43.5599 39.0391ZM121.057 121.553C104.623 121.553 92.3415 110.828 92.3415 86.7827C92.3415 63.2569 104.623 52.1859 121.057 52.1859C137.49 52.1859 149.772 63.2569 149.772 86.7827C149.772 110.828 137.49 121.553 121.057 121.553ZM121.057 101.486C125.208 101.486 126.592 96.9888 126.592 86.7827C126.592 76.0577 125.208 71.0411 121.057 71.0411C116.905 71.0411 115.348 76.0577 115.348 86.7827C115.348 96.9888 116.905 101.486 121.057 101.486Z" fill="#E7E7E8"></path><rect x="178" y="-18.4854" width="178" height="178" transform="rotate(90 178 -18.4854)" fill="url(#paint0_linear_37478_2892)"></rect></g><defs><linearGradient id="paint0_linear_37478_2892" x1="267" y1="-18.4854" x2="267" y2="159.515" gradientUnits="userSpaceOnUse"><stop stop-color="#212431" stop-opacity="0"></stop><stop offset="1" stop-color="#212431"></stop></linearGradient><clipPath id="clip0_37478_2892"><rect width="134" height="130" rx="20" fill="white"></rect></clipPath></defs></svg> 