<?xml version="1.0" encoding="UTF-8"?> <svg xmlns="http://www.w3.org/2000/svg" width="172" height="45" viewBox="0 0 172 45" fill="none"><rect width="171.231" height="44.8708" rx="13.7654" fill="#434961"></rect><rect width="26.3353" height="26.3608" transform="translate(72.2461 9.3418)" fill="#434961"></rect><path d="M72.2461 22.5221C72.2461 21.8883 72.2461 21.5715 72.2813 21.2947C72.5006 19.5733 73.7116 18.1425 75.3719 17.6429C75.6388 17.5626 75.9511 17.5105 76.5756 17.4064L77.6825 17.2217C78.0512 17.1602 78.2355 17.1294 78.4078 17.0702C78.6545 16.9854 78.8841 16.8573 79.0858 16.6919C79.2267 16.5763 79.3498 16.4356 79.5959 16.154L80.3571 15.2832C82.262 13.1041 83.2144 12.0145 84.0425 11.9103C84.76 11.8199 85.4759 12.0892 85.9564 12.6301C86.511 13.2544 86.511 14.7022 86.511 17.5977V27.4465C86.511 30.342 86.511 31.7898 85.9564 32.4141C85.4759 32.955 84.76 33.2243 84.0425 33.1339C83.2144 33.0297 82.262 31.9401 80.3571 29.761L79.5959 28.8902C79.3498 28.6086 79.2267 28.4679 79.0858 28.3523C78.8841 28.1869 78.6545 28.0588 78.4078 27.974C78.2355 27.9148 78.0512 27.884 77.6825 27.8225L76.5756 27.6379C75.9511 27.5337 75.6388 27.4816 75.3719 27.4013C73.7116 26.9018 72.5006 25.4709 72.2813 23.7495C72.2461 23.4727 72.2461 23.1559 72.2461 22.5221Z" fill="url(#paint0_linear_105_400)"></path><path d="M88.7056 17.0292C88.7056 16.4232 89.1969 15.9319 89.803 15.9319V15.9319C90.409 15.9319 90.9003 16.4232 90.9003 17.0292V28.015C90.9003 28.621 90.409 29.1123 89.803 29.1123V29.1123C89.1969 29.1123 88.7056 28.621 88.7056 28.015V17.0292Z" fill="url(#paint1_linear_105_400)"></path><path d="M93.0949 19.2259C93.0949 18.6199 93.5861 18.1286 94.1922 18.1286V18.1286C94.7982 18.1286 95.2895 18.6199 95.2895 19.2259V25.8183C95.2895 26.4243 94.7982 26.9156 94.1922 26.9156V26.9156C93.5861 26.9156 93.0949 26.4243 93.0949 25.8183V19.2259Z" fill="url(#paint2_linear_105_400)"></path><defs><linearGradient id="paint0_linear_105_400" x1="83.7678" y1="11.8931" x2="83.7678" y2="33.1511" gradientUnits="userSpaceOnUse"><stop stop-color="#BCEC30"></stop><stop offset="0.533556" stop-color="#19CD10"></stop><stop offset="1" stop-color="#01B089"></stop></linearGradient><linearGradient id="paint1_linear_105_400" x1="83.7678" y1="11.8931" x2="83.7678" y2="33.1511" gradientUnits="userSpaceOnUse"><stop stop-color="#BCEC30"></stop><stop offset="0.533556" stop-color="#19CD10"></stop><stop offset="1" stop-color="#01B089"></stop></linearGradient><linearGradient id="paint2_linear_105_400" x1="83.7678" y1="11.8931" x2="83.7678" y2="33.1511" gradientUnits="userSpaceOnUse"><stop stop-color="#BCEC30"></stop><stop offset="0.533556" stop-color="#19CD10"></stop><stop offset="1" stop-color="#01B089"></stop></linearGradient></defs></svg> 