<?xml version="1.0" encoding="UTF-8"?> <svg xmlns="http://www.w3.org/2000/svg" width="19" height="20" viewBox="0 0 19 20" fill="none"><path opacity="0.7" fill-rule="evenodd" clip-rule="evenodd" d="M9.5 19.5132C14.7467 19.5132 19 15.2599 19 10.0132C19 4.76648 14.7467 0.513186 9.5 0.513185C4.25329 0.513184 -7.4367e-07 4.76648 -1.66103e-06 10.0132C-2.5784e-06 15.2599 4.25329 19.5132 9.5 19.5132ZM11.5133 10.1213C12.0997 9.55891 12.7164 8.96739 12.7164 7.88247C12.7164 6.19961 11.495 5.26318 9.73071 5.26318C8.10214 5.26318 6.65 6.22676 6.65 8.20818L6.65 8.79176L8.29214 8.79176L8.29214 8.35747C8.29214 7.19033 8.93 6.75604 9.73071 6.75604C10.5993 6.75604 11.0879 7.16318 11.0879 7.88247C11.0879 8.50487 10.6513 8.95658 10.1747 9.44979C9.60171 10.0428 8.97071 10.6957 8.97071 11.7775L8.97071 12.1846L10.4636 12.1846L10.4771 11.8453C10.5088 11.0847 10.9994 10.6142 11.5133 10.1213ZM8.76714 14.7632C8.76714 15.2653 9.20143 15.7132 9.71714 15.7132C10.2464 15.7132 10.6671 15.2653 10.6671 14.7632C10.6671 14.2475 10.2464 13.8132 9.71714 13.8132C9.20143 13.8132 8.76714 14.2475 8.76714 14.7632Z" fill="white"></path></svg> 