<?xml version="1.0" encoding="UTF-8"?> <svg xmlns="http://www.w3.org/2000/svg" width="174" height="174" viewBox="0 0 174 174" fill="none"><path d="M87.0046 4.35023C87.0046 1.94767 88.9537 -0.0113459 91.3533 0.108717C107.035 0.893344 122.242 5.90984 135.342 14.6629C149.65 24.2231 160.801 37.8114 167.386 53.7094C173.972 69.6075 175.695 87.1012 172.338 103.978C168.98 120.856 160.694 136.358 148.526 148.526C136.358 160.694 120.856 168.981 103.978 172.338C87.1011 175.695 69.6074 173.972 53.7093 167.387C37.8113 160.801 24.223 149.65 14.6628 135.342C5.90973 122.242 0.893237 107.035 0.10861 91.3534C-0.0114527 88.9538 1.94756 87.0047 4.35013 87.0047V87.0047C6.7527 87.0047 8.68776 88.9539 8.82115 91.3528C9.59737 105.313 14.1 118.839 21.897 130.508C30.5012 143.385 42.7306 153.422 57.0389 159.348C71.3471 165.275 87.0914 166.826 102.281 163.804C117.471 160.783 131.423 153.325 142.374 142.374C153.325 131.423 160.783 117.471 163.804 102.281C166.826 87.0916 165.275 71.3472 159.348 57.039C153.422 42.7307 143.385 30.5013 130.508 21.8971C118.839 14.1001 105.312 9.59747 91.3526 8.82125C88.9538 8.68786 87.0046 6.7528 87.0046 4.35023V4.35023Z" fill="#434961"></path></svg> 