<?xml version="1.0" encoding="UTF-8"?> <svg xmlns="http://www.w3.org/2000/svg" width="286" height="220" viewBox="0 0 286 220" fill="none"><g opacity="0.1"><path d="M238.705 195.708V0" stroke="url(#paint0_linear_84_3894)" stroke-width="0.788011"></path><path d="M207.266 195.708V0" stroke="url(#paint1_linear_84_3894)" stroke-width="0.788011"></path><path d="M175.82 195.708V0" stroke="url(#paint2_linear_84_3894)" stroke-width="0.788011"></path><path d="M144.377 195.708V0" stroke="url(#paint3_linear_84_3894)" stroke-width="0.788011"></path><path d="M112.938 195.708V0" stroke="url(#paint4_linear_84_3894)" stroke-width="0.788011"></path><path d="M81.4961 195.708V0" stroke="url(#paint5_linear_84_3894)" stroke-width="0.788011"></path><path d="M50.0566 195.708V0" stroke="url(#paint6_linear_84_3894)" stroke-width="0.788011"></path><path d="M15.4019 195.55L257.31 195.55" stroke="url(#paint7_linear_84_3894)" stroke-width="0.788011"></path><path d="M15.4019 163.466L269.502 163.466" stroke="url(#paint8_linear_84_3894)" stroke-width="0.788011"></path><path d="M15.4019 131.383L269.502 131.383" stroke="url(#paint9_linear_84_3894)" stroke-width="0.788011"></path><path d="M15.4019 99.2998L269.502 99.2998" stroke="url(#paint10_linear_84_3894)" stroke-width="0.788011"></path><path d="M15.4019 67.2168L269.502 67.2168" stroke="url(#paint11_linear_84_3894)" stroke-width="0.788011"></path><path d="M15.4019 35.1328L269.502 35.1328" stroke="url(#paint12_linear_84_3894)" stroke-width="0.788011"></path></g><path opacity="0.5" d="M223.892 81.3237L269.5 45.2383V179.949C269.5 188.653 262.444 195.709 253.74 195.709H41.9183H22.1374L41.9183 172.609L77.8352 136.692C81.4452 133.082 86.3415 131.054 91.447 131.054H122.579C127.998 131.054 133.167 128.77 136.815 124.762L165.103 93.6843C168.496 89.9572 173.215 87.7092 178.247 87.4233L213.04 85.4465C216.995 85.2217 220.785 83.782 223.892 81.3237Z" fill="url(#paint13_linear_84_3894)"></path><path opacity="0.5" d="M9.03606e-05 195.427L5.51617 192.242V198.612L9.03606e-05 195.427ZM269.5 22.0645L272.685 27.5805H266.315L269.5 22.0645ZM253.74 195.979H4.96456V194.875H253.74V195.979ZM268.948 179.667V27.0289H270.052V179.667H268.948ZM253.74 194.875C262.139 194.875 268.948 188.066 268.948 179.667H270.052C270.052 188.676 262.749 195.979 253.74 195.979V194.875Z" fill="white"></path><g filter="url(#filter0_d_84_3894)"><path d="M269.5 46.5215L262.786 63.4362L251.495 49.1647L269.5 46.5215ZM23.1869 195.746C22.5758 196.365 21.578 196.373 20.9581 195.762C20.3382 195.151 20.331 194.153 20.942 193.533L23.1869 195.746ZM77.8188 138.074L76.6964 136.968L77.8188 138.074ZM136.815 126.045L137.98 127.106L136.815 126.045ZM165.103 94.9675L163.938 93.9066L165.103 94.9675ZM259.354 56.5585L224.87 83.8429L222.914 81.371L257.399 54.0866L259.354 56.5585ZM213.129 88.3032L178.336 90.28L178.158 87.133L212.95 85.1562L213.129 88.3032ZM166.269 96.0284L137.98 127.106L135.649 124.984L163.938 93.9066L166.269 96.0284ZM122.579 133.913H91.5285V130.761H122.579V133.913ZM78.9412 139.18L23.1869 195.746L20.942 193.533L76.6964 136.968L78.9412 139.18ZM91.5285 133.913C86.7968 133.913 82.2628 135.811 78.9412 139.18L76.6964 136.968C80.6103 132.997 85.953 130.761 91.5285 130.761V133.913ZM137.98 127.106C134.033 131.442 128.442 133.913 122.579 133.913V130.761C127.555 130.761 132.3 128.664 135.649 124.984L137.98 127.106ZM178.336 90.28C173.717 90.5425 169.384 92.6064 166.269 96.0284L163.938 93.9066C167.608 89.8743 172.714 87.4424 178.158 87.133L178.336 90.28ZM224.87 83.8429C221.509 86.5024 217.408 88.06 213.129 88.3032L212.95 85.1562C216.582 84.9499 220.062 83.628 222.914 81.371L224.87 83.8429Z" fill="url(#paint14_linear_84_3894)"></path></g><defs><filter id="filter0_d_84_3894" x="4.7283" y="38.6414" width="280.532" height="181.214" filterUnits="userSpaceOnUse" color-interpolation-filters="sRGB"><feFlood flood-opacity="0" result="BackgroundImageFix"></feFlood><feColorMatrix in="SourceAlpha" type="matrix" values="0 0 0 0 0 0 0 0 0 0 0 0 0 0 0 0 0 0 127 0" result="hardAlpha"></feColorMatrix><feOffset dy="7.88011"></feOffset><feGaussianBlur stdDeviation="7.88011"></feGaussianBlur><feComposite in2="hardAlpha" operator="out"></feComposite><feColorMatrix type="matrix" values="0 0 0 0 0.047619 0 0 0 0 1 0 0 0 0 0 0 0 0 0.3 0"></feColorMatrix><feBlend mode="normal" in2="BackgroundImageFix" result="effect1_dropShadow_84_3894"></feBlend><feBlend mode="normal" in="SourceGraphic" in2="effect1_dropShadow_84_3894" result="shape"></feBlend></filter><linearGradient id="paint0_linear_84_3894" x1="238.205" y1="0" x2="238.205" y2="195.708" gradientUnits="userSpaceOnUse"><stop offset="0.02" stop-color="white" stop-opacity="0"></stop><stop offset="1" stop-color="white"></stop></linearGradient><linearGradient id="paint1_linear_84_3894" x1="206.766" y1="0" x2="206.766" y2="195.708" gradientUnits="userSpaceOnUse"><stop offset="0.02" stop-color="white" stop-opacity="0"></stop><stop offset="1" stop-color="white"></stop></linearGradient><linearGradient id="paint2_linear_84_3894" x1="175.32" y1="0" x2="175.32" y2="195.708" gradientUnits="userSpaceOnUse"><stop offset="0.02" stop-color="white" stop-opacity="0"></stop><stop offset="1" stop-color="white"></stop></linearGradient><linearGradient id="paint3_linear_84_3894" x1="143.877" y1="0" x2="143.877" y2="195.708" gradientUnits="userSpaceOnUse"><stop offset="0.02" stop-color="white" stop-opacity="0"></stop><stop offset="1" stop-color="white"></stop></linearGradient><linearGradient id="paint4_linear_84_3894" x1="112.438" y1="0" x2="112.437" y2="195.708" gradientUnits="userSpaceOnUse"><stop offset="0.02" stop-color="white" stop-opacity="0"></stop><stop offset="1" stop-color="white"></stop></linearGradient><linearGradient id="paint5_linear_84_3894" x1="80.9961" y1="0" x2="80.9961" y2="195.708" gradientUnits="userSpaceOnUse"><stop offset="0.02" stop-color="white" stop-opacity="0"></stop><stop offset="1" stop-color="white"></stop></linearGradient><linearGradient id="paint6_linear_84_3894" x1="49.5566" y1="0" x2="49.5566" y2="195.708" gradientUnits="userSpaceOnUse"><stop offset="0.02" stop-color="white" stop-opacity="0"></stop><stop offset="1" stop-color="white"></stop></linearGradient><linearGradient id="paint7_linear_84_3894" x1="257.31" y1="195.55" x2="15.4019" y2="195.55" gradientUnits="userSpaceOnUse"><stop stop-color="white"></stop><stop offset="1" stop-color="white" stop-opacity="0"></stop></linearGradient><linearGradient id="paint8_linear_84_3894" x1="269.502" y1="162.966" x2="15.4019" y2="162.966" gradientUnits="userSpaceOnUse"><stop stop-color="white"></stop><stop offset="1" stop-color="white" stop-opacity="0"></stop></linearGradient><linearGradient id="paint9_linear_84_3894" x1="269.502" y1="130.883" x2="15.4019" y2="130.883" gradientUnits="userSpaceOnUse"><stop stop-color="white"></stop><stop offset="1" stop-color="white" stop-opacity="0"></stop></linearGradient><linearGradient id="paint10_linear_84_3894" x1="269.502" y1="98.7998" x2="15.4019" y2="98.7998" gradientUnits="userSpaceOnUse"><stop stop-color="white"></stop><stop offset="1" stop-color="white" stop-opacity="0"></stop></linearGradient><linearGradient id="paint11_linear_84_3894" x1="269.502" y1="66.7168" x2="15.4019" y2="66.7168" gradientUnits="userSpaceOnUse"><stop stop-color="white"></stop><stop offset="1" stop-color="white" stop-opacity="0"></stop></linearGradient><linearGradient id="paint12_linear_84_3894" x1="269.502" y1="34.6328" x2="15.4019" y2="34.6328" gradientUnits="userSpaceOnUse"><stop stop-color="white"></stop><stop offset="1" stop-color="white" stop-opacity="0"></stop></linearGradient><linearGradient id="paint13_linear_84_3894" x1="145.819" y1="45.2383" x2="145.819" y2="195.709" gradientUnits="userSpaceOnUse"><stop stop-color="#BCEC30"></stop><stop offset="0.533556" stop-color="#19CD10" stop-opacity="0.5"></stop><stop offset="1" stop-color="#01B089" stop-opacity="0.2"></stop></linearGradient><linearGradient id="paint14_linear_84_3894" x1="145.782" y1="46.5215" x2="145.782" y2="194.639" gradientUnits="userSpaceOnUse"><stop stop-color="#BCEC30"></stop><stop offset="0.533556" stop-color="#19CD10"></stop><stop offset="1" stop-color="#01B089"></stop></linearGradient></defs></svg> 