<?xml version="1.0" encoding="UTF-8"?> <svg xmlns="http://www.w3.org/2000/svg" width="29" height="28" viewBox="0 0 29 28" fill="none"><rect x="0.921631" y="0.476074" width="27.4083" height="26.5518" rx="7.58622" fill="url(#paint0_linear_105_283)"></rect><path fill-rule="evenodd" clip-rule="evenodd" d="M10.8782 15.3218C10.2475 15.3218 9.73621 14.8105 9.73621 14.1798C9.73621 13.549 10.2475 13.0378 10.8782 13.0378C11.5089 13.0378 12.0202 13.549 12.0202 14.1798C12.0202 14.8105 11.5089 15.3218 10.8782 15.3218ZM14.8753 15.3218C14.2445 15.3218 13.7332 14.8105 13.7332 14.1798C13.7332 13.549 14.2445 13.0378 14.8753 13.0378C15.506 13.0378 16.0173 13.549 16.0173 14.1798C16.0173 14.8105 15.506 15.3218 14.8753 15.3218ZM17.7303 14.1798C17.7303 14.8105 18.2416 15.3218 18.8723 15.3218C19.503 15.3218 20.0143 14.8105 20.0143 14.1798C20.0143 13.549 19.503 13.0378 18.8723 13.0378C18.2416 13.0378 17.7303 13.549 17.7303 14.1798Z" fill="white"></path><defs><linearGradient id="paint0_linear_105_283" x1="14.6258" y1="0.476074" x2="14.6258" y2="27.0279" gradientUnits="userSpaceOnUse"><stop stop-color="#BCEC30"></stop><stop offset="0.533556" stop-color="#19CD10"></stop><stop offset="1" stop-color="#01B089"></stop></linearGradient></defs></svg> 