<?xml version="1.0" encoding="UTF-8"?> <svg xmlns="http://www.w3.org/2000/svg" width="66" height="66" viewBox="0 0 66 66" fill="none"><circle cx="33" cy="32.876" r="31.3839" fill="#09B7FF" stroke="white" stroke-width="2.76786"></circle><path fill-rule="evenodd" clip-rule="evenodd" d="M14.3201 31.7632L35.7999 22.2966C46.0287 17.9434 48.1541 17.1872 49.5394 17.1624C49.8442 17.1568 50.5255 17.234 50.9667 17.6004C51.3394 17.9097 51.4418 18.3278 51.491 18.6211C51.5402 18.9143 51.6011 19.5825 51.5525 20.1045C50.9982 26.0635 48.5997 40.5248 47.3795 47.1988C46.8632 50.0232 45.8474 50.97 44.8625 51.0626C42.7235 51.2641 41.0994 49.6162 39.0277 48.2269L30.8078 42.5774C27.1713 40.1256 29.5288 38.778 31.6012 36.5756C32.1436 35.999 41.5677 27.2284 41.7501 26.4328C41.7721 26.3334 41.794 25.9624 41.5786 25.7665C41.3633 25.5706 41.0453 25.6383 40.816 25.6909C40.4908 25.7665 35.3122 29.2686 25.28 36.1978C23.81 37.2306 22.4785 37.7338 21.2857 37.7074C19.9705 37.6783 17.4408 36.9466 15.5602 36.3212C13.2536 35.554 11.4203 35.1483 11.58 33.8455C11.6631 33.1668 12.5765 32.4729 14.32 31.7634L14.3201 31.7632Z" fill="white"></path></svg> 