<?xml version="1.0" encoding="UTF-8"?> <svg xmlns="http://www.w3.org/2000/svg" width="107" height="39" viewBox="0 0 107 39" fill="none"> <g clip-path="url(#clip0_15767_11880)"> <path d="M0 19.0488C0 26.2691 5.82846 32.0976 13.0488 32.0976C20.2691 32.0976 26.0976 26.2691 26.0976 19.0488C26.0976 11.8285 20.2691 6 13.0488 6C5.82846 6 0 11.8285 0 19.0488ZM4.52358 19.0488C4.52358 14.5252 8.00325 10.8715 12.4398 10.5236V15.0472C10.526 15.3081 9.04715 16.961 9.04715 18.9618C9.04715 21.1366 10.787 22.9634 13.0488 22.9634C15.3106 22.9634 17.0504 21.2236 17.0504 18.9618C17.0504 16.961 15.5715 15.3081 13.6577 15.0472V10.5236C18.0943 10.7846 21.574 14.5252 21.574 19.0488C21.574 23.7463 17.7463 27.574 13.0488 27.574C8.35122 27.574 4.52358 23.7463 4.52358 19.0488ZM11.3089 8.26179C11.3089 7.30488 12.0919 6.52195 13.0488 6.52195C14.0057 6.52195 14.7886 7.30488 14.7886 8.26179C14.7886 9.2187 14.0057 10.0016 13.0488 10.0016C12.0919 10.0016 11.3089 9.2187 11.3089 8.26179Z" fill="white"></path> <path d="M34.7968 21.9196H31.0561C30.4472 21.9196 30.0992 21.5717 30.0992 20.9627V17.2221C30.0992 16.5261 30.4472 16.2652 31.0561 16.2652H34.7968C35.4057 16.2652 35.7537 16.6131 35.7537 17.2221V20.9627C35.7537 21.5717 35.4057 21.9196 34.7968 21.9196ZM38.0155 17.0481C38.0155 14.9603 36.9715 13.9164 34.9707 13.9164H30.8821C28.7943 13.9164 27.8374 14.9603 27.8374 17.0481V20.9627C27.8374 23.0505 28.8813 24.0944 30.8821 24.0944H34.9707C36.9715 24.0944 38.0155 23.0505 38.0155 20.9627V17.0481Z" fill="white"></path> <path d="M49.3244 13.9164H39.1464V16.1782H43.148V24.1814H45.4098V16.1782H49.3244V13.9164Z" fill="white"></path> <path d="M60.7203 17.048C60.7203 15.0471 59.7634 14.0032 57.8496 14.0032H50.4553V16.265H57.4146C58.1105 16.265 58.4585 16.526 58.4585 17.1349C58.4585 17.7439 58.1105 18.0049 57.4146 18.0049H54.4569V20.2666H57.4146C58.1105 20.2666 58.4585 20.5276 58.4585 21.1366C58.4585 21.7455 58.1105 22.0065 57.4146 22.0065H50.4553V24.2683H57.4146C59.5894 24.2683 60.7203 23.3984 60.7203 21.5715C60.7203 20.7016 60.5463 19.8317 60.1114 19.2227C60.5463 18.3528 60.7203 17.6569 60.7203 17.048Z" fill="white"></path> <path d="M68.8102 21.9196H65.0696C64.4607 21.9196 64.1127 21.5717 64.1127 20.9627V17.2221C64.1127 16.5261 64.4607 16.2652 65.0696 16.2652H68.8102C69.4192 16.2652 69.7671 16.6131 69.7671 17.2221V20.9627C69.7671 21.5717 69.4192 21.9196 68.8102 21.9196ZM72.0289 17.0481C72.0289 14.9603 70.985 13.9164 68.9842 13.9164H64.8956C62.8078 13.9164 61.8509 14.9603 61.8509 17.0481V20.9627C61.8509 23.0505 62.8948 24.0944 64.8956 24.0944H68.9842C70.985 24.0944 72.0289 23.0505 72.0289 20.9627V17.0481Z" fill="white"></path> <path d="M81.1636 21.0497C81.1636 20.4408 80.8156 20.1798 80.2067 20.1798H75.5091V21.9196H80.2067C80.8156 21.9196 81.1636 21.5717 81.1636 21.0497ZM81.1636 17.0481C81.1636 16.4391 80.8156 16.1782 80.2067 16.1782H75.5091V17.918H80.2067C80.8156 17.918 81.1636 17.657 81.1636 17.0481ZM83.4254 21.0497C83.4254 23.1375 82.3815 24.0944 80.3807 24.0944H73.2473V13.9164H80.3807C82.3815 13.9164 83.4254 14.9603 83.4254 16.9611C83.4254 17.918 83.1644 18.6139 82.8164 18.9619C83.1644 19.4839 83.4254 20.1798 83.4254 21.0497Z" fill="white"></path> <path d="M94.7343 24.1814H92.4725V17.0481L86.8181 24.1814H84.5563V13.9164H86.8181V21.0497L92.4725 13.9164H94.7343V24.1814Z" fill="white"></path> <path d="M102.216 19.0489L106.304 13.9164H103.695L100.476 17.918H98.127V13.9164H95.8652V24.1814H98.127V20.1798H100.476L103.695 24.1814H106.304L102.216 19.0489Z" fill="white"></path> </g> <defs> <clipPath id="clip0_15767_11880"> <rect width="107" height="26.9675" fill="white" transform="translate(0 6)"></rect> </clipPath> </defs> </svg> 