<?xml version="1.0" encoding="UTF-8"?> <svg xmlns="http://www.w3.org/2000/svg" width="35" height="35" viewBox="0 0 35 35" fill="none"><ellipse cx="17.5" cy="17.5" rx="17.5" ry="17.5" fill="#212431"></ellipse><path d="M20.3938 16.152C20.3993 16.0881 20.4048 16.0213 20.4107 15.9513L20.7642 11.7086C20.9102 9.95651 20.9832 9.08045 20.6678 8.63434C20.3939 8.24704 19.953 8.01209 19.4788 8.00078C18.9326 7.98774 18.2462 8.53691 16.8732 9.63526L11.5699 13.8779C9.93133 15.1888 9.11206 15.8442 9.02166 16.419C8.94341 16.9165 9.12005 17.4201 9.49195 17.7597C9.9216 18.152 10.9708 18.152 13.0691 18.152H14.0607C14.0553 18.2159 14.0497 18.2827 14.0439 18.3527L13.6903 22.5954C13.5443 24.3475 13.4713 25.2236 13.7867 25.6697C14.0606 26.057 14.5015 26.292 14.9757 26.3033C15.5219 26.3163 16.2084 25.7671 17.5813 24.6688L22.8847 20.4261C24.5232 19.1153 25.3425 18.4599 25.4329 17.8851C25.5111 17.3876 25.3345 16.884 24.9626 16.5444C24.5329 16.152 23.4838 16.152 21.3854 16.152H20.3938Z" fill="url(#paint0_linear_6_3857)"></path><defs><linearGradient id="paint0_linear_6_3857" x1="9.65117" y1="11.9982" x2="25.8223" y2="11.9969" gradientUnits="userSpaceOnUse"><stop stop-color="#04CE9B"></stop><stop offset="1" stop-color="#7BC600"></stop></linearGradient></defs></svg> 