<?xml version="1.0" encoding="UTF-8"?> <svg xmlns="http://www.w3.org/2000/svg" width="44" height="45" viewBox="0 0 44 45" fill="none"><path data-figma-bg-blur-radius="132" d="M21.9994 10.2975C24.7494 6.01318 28.1764 6.01318 30.2494 6.01318C35.8182 6.01318 40.3327 9.67985 40.3327 17.0132C40.3327 28.9299 22.916 39.0132 21.9994 39.0132C21.0827 39.0132 3.66602 28.9299 3.66602 17.0132C3.66602 10.2975 8.18048 6.01318 13.7494 6.01318C15.8223 6.01318 19.2494 6.01318 21.9994 10.2975Z" fill="url(#paint0_linear_31301_3541)"></path><defs><clipPath id="bgblur_0_31301_3541_clip_path"><path transform="translate(128.334 125.987)" d="M21.9994 10.2975C24.7494 6.01318 28.1764 6.01318 30.2494 6.01318C35.8182 6.01318 40.3327 9.67985 40.3327 17.0132C40.3327 28.9299 22.916 39.0132 21.9994 39.0132C21.0827 39.0132 3.66602 28.9299 3.66602 17.0132C3.66602 10.2975 8.18048 6.01318 13.7494 6.01318C15.8223 6.01318 19.2494 6.01318 21.9994 10.2975Z"></path></clipPath><linearGradient id="paint0_linear_31301_3541" x1="21.9994" y1="6.01318" x2="21.9994" y2="39.0132" gradientUnits="userSpaceOnUse"><stop stop-color="#FF7376"></stop><stop offset="1" stop-color="#FF4680"></stop></linearGradient></defs></svg> 