<?xml version="1.0" encoding="UTF-8"?> <svg xmlns="http://www.w3.org/2000/svg" width="66" height="12" viewBox="0 0 66 12" fill="none"><path d="M1.92112 10.6139C0.880904 11.23 0.126443 10.7388 0.119554 9.84684C0.112221 8.89726 0.0902168 6.04805 0.0902168 6.04805C0.0902168 6.04805 0.0682129 3.19884 0.0608795 2.24925C0.0539908 1.35725 0.800241 0.845455 1.85022 1.43289C3.48482 2.34758 8.38815 5.0926 8.38815 5.0926C9.04012 5.45748 9.04734 6.3922 8.40115 6.77491C8.40115 6.77538 3.54125 9.65449 1.92112 10.6139Z" fill="#00C1FF"></path><path d="M7.28444 10.5635C6.2442 11.1797 5.48973 10.6885 5.48284 9.79642C5.4755 8.8468 5.4535 5.99748 5.4535 5.99748C5.4535 5.99748 5.43149 3.14815 5.42416 2.19853C5.41727 1.30649 6.16354 0.794675 7.21354 1.38213C8.81216 2.27692 13.608 4.96176 13.608 4.96176C14.3241 5.36246 14.332 6.3887 13.6223 6.80899C13.6218 6.809 8.86891 9.62499 7.28444 10.5635Z" fill="#6FE4FF"></path><mask id="mask0_37390_3444" style="mask-type:alpha" maskUnits="userSpaceOnUse" x="5" y="1" width="10" height="10"><path d="M7.28747 10.5706C6.2486 11.1857 5.49462 10.6911 5.48727 9.79655C5.47945 8.84429 5.45599 5.98704 5.45599 5.98704C5.45599 5.98704 5.43252 3.12978 5.4247 2.17752C5.41736 1.283 6.1626 0.771782 7.21185 1.36368C8.80933 2.26525 13.6018 4.9704 13.6018 4.9704C14.3173 5.37414 14.3258 6.40323 13.617 6.82277C13.6165 6.82277 8.86985 9.63375 7.28747 10.5706Z" fill="#6FE4FF"></path></mask><g mask="url(#mask0_37390_3444)"><path d="M1.93002 10.6212C0.891164 11.2363 0.137198 10.7417 0.129852 9.84721C0.122031 8.89496 0.098566 6.03774 0.098566 6.03774C0.098566 6.03774 0.0751005 3.18051 0.0672799 2.22826C0.0599336 1.33375 0.805173 0.822536 1.85441 1.41443C3.48786 2.33608 8.38773 5.10195 8.38773 5.10195C9.03924 5.4696 9.04694 6.40695 8.40159 6.78899C8.40159 6.78946 3.54803 9.66353 1.93002 10.6212Z" fill="#009EE4"></path></g><path d="M17.6191 7.56112L17.7996 7.13939C17.92 6.85435 18.1409 6.77812 18.4259 6.98516C18.9715 7.37525 19.8605 7.66322 21.0426 7.65192C22.0523 7.64227 22.4806 7.37899 22.4776 7.06996C22.4743 6.7241 22.1165 6.6287 21.5247 6.56024L20.1811 6.40061C18.5663 6.20628 17.748 5.63327 17.7383 4.62087C17.7279 3.53437 18.6063 2.66125 20.6619 2.6416C21.8069 2.63065 22.5474 2.79651 23.0291 2.97697C23.5604 3.18166 23.6359 3.35388 23.6401 3.78643L23.6454 4.34204C23.6487 4.6879 23.5267 4.81259 23.1819 4.81589L22.8004 4.81954C22.4557 4.82283 22.3313 4.70049 22.328 4.35464L22.3263 4.16912C22.1039 4.09713 21.549 3.99149 20.8966 3.99773C19.7642 4.00856 19.2118 4.22361 19.2151 4.56946C19.2176 4.82862 19.5513 4.97367 20.1552 5.0546L21.4742 5.21493C23.0891 5.40926 23.9431 5.8831 23.9542 7.04372C23.9655 8.22904 22.8524 8.99346 20.8581 9.01253C19.393 9.02654 18.2069 8.56846 17.7348 8.14084C17.5613 7.98168 17.5347 7.7717 17.6191 7.56112Z" fill="white"></path><path d="M32.162 8.80516L31.485 8.81163C31.1528 8.81481 31.0412 8.76646 30.879 8.52095L29.5808 6.64357C29.3939 6.38617 29.2576 6.32548 28.8761 6.32912L27.5959 6.34136L27.6154 8.37921C27.6187 8.72506 27.4968 8.84976 27.152 8.85306L26.6594 8.85777C26.3147 8.86106 26.1903 8.73872 26.187 8.39287L26.1283 2.25556L25.673 2.25992C25.3282 2.26321 25.2039 2.14087 25.2006 1.79501L25.1967 1.38763C25.1934 1.04178 25.3153 0.91708 25.6601 0.913783L27.0759 0.900246C27.4207 0.89695 27.545 1.01929 27.5484 1.36515L27.5827 4.95887L28.7277 4.94793C29.1091 4.94428 29.2442 4.88146 29.4262 4.62007L30.4815 2.95513C30.6514 2.69432 30.7615 2.64386 31.0942 2.64067L31.7712 2.6342C32.1406 2.63067 32.2174 2.92641 32.0107 3.23698L30.8339 5.06391C30.7124 5.23801 30.5664 5.42447 30.4201 5.57411C30.569 5.69621 30.7801 5.90397 30.8677 6.02666L32.3906 8.21049C32.6025 8.50493 32.5314 8.80162 32.162 8.80516Z" fill="white"></path><path d="M34.5037 9.91925L34.4998 9.51187C34.4965 9.16601 34.6184 9.04132 34.9632 9.03802L35.5543 9.03237C35.9111 9.02896 36.0828 8.9532 36.2158 8.66804L36.2881 8.50699L33.4179 3.1867C33.2424 2.8672 33.3753 2.61887 33.7447 2.61533L34.385 2.60921C34.7172 2.60603 34.8656 2.66615 34.991 2.89989L36.1959 5.32124C36.4721 5.87425 36.7858 6.51361 37.0374 7.06686C37.2785 6.52102 37.5556 5.90118 37.8213 5.35511L39.0038 2.86152C39.1122 2.62601 39.2719 2.56249 39.6041 2.55931L40.2444 2.55319C40.6138 2.54966 40.7514 2.7954 40.5821 3.1182L37.4274 9.26199C37.0647 9.96935 36.6377 10.3687 35.6773 10.3779L34.9756 10.3846C34.6313 10.3875 34.507 10.2651 34.5037 9.91925Z" fill="white"></path><path d="M48.4737 5.53714L48.4751 5.68537C48.4784 6.03122 48.3565 6.15592 48.0117 6.15922L42.964 6.20748C43.1427 6.86025 43.8011 7.48373 45.1923 7.47043C46.4357 7.45854 46.9983 7.04574 47.2549 6.85776C47.5358 6.6453 47.7336 6.71707 47.884 6.99998L48.097 7.40537C48.2096 7.61406 48.1498 7.77545 47.9664 7.93757C47.6978 8.17461 46.78 8.76421 45.2043 8.77928C43.0868 8.79953 41.5977 7.56633 41.5791 5.61518C41.5608 3.70086 42.9646 2.42789 44.9956 2.40847C47.0276 2.38904 48.4554 3.62282 48.4737 5.53714ZM42.9526 5.00957L47.1016 4.9699C46.9356 4.32913 46.2769 3.73035 45.0089 3.74248C43.7408 3.7546 43.1063 4.36574 42.9526 5.00957Z" fill="white"></path><path d="M57.4491 5.24109L57.4763 8.0937C57.4797 8.43956 57.3577 8.56425 57.0129 8.56755L56.5204 8.57226C56.1756 8.57556 56.0513 8.45321 56.048 8.10736L56.021 5.29157C56.0115 4.29129 55.4152 3.75346 54.418 3.76299C53.6425 3.77041 52.7238 4.26073 52.2728 4.77129L52.3051 8.14268C52.3084 8.48853 52.1864 8.61323 51.8416 8.61653L51.3491 8.62124C51.0043 8.62453 50.88 8.50219 50.8767 8.15633L50.835 3.79725L50.3796 3.8016C50.0348 3.8049 49.9105 3.68256 49.9072 3.3367L49.9033 2.92932C49.9 2.58347 50.022 2.45877 50.3667 2.45547L51.5609 2.44405C51.9057 2.44076 52.03 2.5631 52.0334 2.90896L52.0367 3.25481C52.6964 2.70497 53.5915 2.32581 54.5641 2.31652C56.4111 2.29932 57.4314 3.38876 57.4491 5.24109Z" fill="white"></path><path d="M65.9264 2.77659L65.9817 8.55638C65.994 9.84052 64.6233 10.6936 62.8627 10.7105C61.2006 10.7264 60.4083 10.2398 60.0478 9.90996C59.8738 9.75126 59.8472 9.54128 59.9312 9.33071L60.1116 8.90898C60.2443 8.59912 60.4649 8.53501 60.738 8.75476C61.172 9.09649 61.5934 9.37635 62.837 9.37705C63.9447 9.36646 64.5565 8.95319 64.5518 8.45911L64.5461 7.86621C64.1055 8.15431 63.5655 8.34501 62.79 8.35242C60.7956 8.37149 59.4053 7.21147 59.3873 5.33444C59.3694 3.4574 60.7367 2.25843 62.7315 2.23936C63.593 2.23112 64.1618 2.47274 64.5466 2.76554C64.6431 2.55485 64.8379 2.31804 65.0842 2.31569L65.4536 2.31216C65.7988 2.30839 65.9231 2.43073 65.9264 2.77659ZM64.5318 6.27303L64.5129 4.29718C64.1641 3.88051 63.657 3.62618 62.7458 3.63489C61.6501 3.64536 60.856 4.28273 60.8659 5.3203C60.8758 6.35787 61.6819 6.96735 62.7776 6.95687C63.6762 6.94781 64.1789 6.68382 64.5318 6.27303Z" fill="white"></path></svg> 